<?xml version="1.0" standalone="no"?>
<!DOCTYPE svg PUBLIC "-//W3C//DTD SVG 1.1//EN"
	"http://www.w3.org/Graphics/SVG/1.1/DTD/svg11.dtd">
<svg xmlns="http://www.w3.org/2000/svg" version="1.1"
	xmlns:xlink="http://www.w3.org/1999/xlink"
	color="black"
	width="701.60px" height="422.00px">
<style type="text/css">
.fill {fill: currentColor}
.stroke {stroke: currentColor; fill: none}
text{white-space: pre}
</style>
<title>BeginnerCourse/04-ClairDeLaLune.abc (4) tune 1</title>
<!-- Creator: abcm2ps-8.14.6 -->
<!-- CreationDate: Dec  6, 2020 19:00 -->
<!-- CommandLine: -i -g BeginnerCourse/04-ClairDeLaLune.abc -O build/MusicWeb/BeginnerCourse/04-ClairDeLaLune.svg -->
<g stroke-width="0.70">
<!-- title: Clair De La Lune -->
</g>
<g stroke-width="0.70" font-family="Times" font-size="20.00px" >
<text x="350.80" y="22.00" text-anchor="middle">Clair De La Lune</text>
</g>
<g stroke-width="0.70" font-family="Times" font-size="20.00px" >
<path class="stroke" stroke-width="1"
	d="M10.00 143.00v-82.00"/>
<path class="stroke" stroke-width="1"
	d="M180.20 85.00v-24.00"/>
<path class="stroke" stroke-width="1"
	d="M180.20 143.00v-58.00"/>
<path class="stroke" stroke-width="1"
	d="M272.10 85.00v-24.00"/>
<path class="stroke" stroke-width="1"
	d="M272.10 143.00v-58.00"/>
<path class="stroke" stroke-width="1"
	d="M406.10 85.00v-24.00"/>
<path class="stroke" stroke-width="1"
	d="M406.10 143.00v-58.00"/>
<path class="stroke" stroke-width="1"
	d="M465.50 85.00v-24.00"/>
<path class="stroke" stroke-width="1"
	d="M465.50 143.00v-58.00"/>
<path class="stroke" stroke-width="1"
	d="M599.70 85.00v-24.00"/>
<path class="stroke" stroke-width="1"
	d="M599.70 143.00v-58.00"/>
<path class="stroke" stroke-width="1"
	d="M691.60 85.00v-24.00"/>
<path class="stroke" stroke-width="1"
	d="M691.60 143.00v-58.00"/>
<path d="m10.00 85.00
	h681.60
	M10.00 79.00
	h681.60
	M10.00 73.00
	h681.60
	M10.00 67.00
	h681.60
	M10.00 61.00
	h681.60
	" class="stroke"/>
<path d="m10.00 143.00
	h681.60
	M10.00 137.00
	h681.60
	M10.00 131.00
	h681.60
	M10.00 125.00
	h681.60
	M10.00 119.00
	h681.60
	" class="stroke"/>
<defs>
<path id="utclef" class="fill" d="m-50 -90
	c-72 -41 -72 -158 52 -188
	150 -10 220 188 90 256
	-114 52 -275 0 -293 -136
	-15 -181 93 -229 220 -334
	88 -87 79 -133 62 -210
	-51 33 -94 105 -89 186
	17 267 36 374 49 574
	6 96 -19 134 -77 135
	-80 1 -126 -93 -61 -133
	85 -41 133 101 31 105
	23 17 92 37 90 -92
	-10 -223 -39 -342 -50 -617
	0 -90 0 -162 96 -232
	56 72 63 230 22 289
	-74 106 -257 168 -255 316
	9 153 148 185 252 133
	86 -65 29 -192 -80 -176
	-71 12 -105 67 -59 124"/>
<use id="tclef" transform="translate(0,6) scale(0.045)"
	xlink:href="#utclef"/>
</defs>
<use x="22.00" y="79.00" xlink:href="#tclef"/>
<g font-weight="bold" font-family="serif" font-size="16px" 
	transform="translate(40.50,84.50) scale(1.2,1)">
	<text text-anchor="middle">4</text>
	<text y="-12" text-anchor="middle">4</text>
</g>
<defs>
<path id="hl" class="stroke" d="m-6 0h12"/>
</defs>
<use x="60.00" y="91.00" xlink:href="#hl"/>
<defs>
<ellipse id="hd" rx="4.1" ry="2.9"
	transform="rotate(-20)" class="fill"/>
</defs>
<use x="60.00" y="91.00" xlink:href="#hd"/>
<path d="M63.50 91.00v-21.00" class="stroke"/>
<use x="92.40" y="91.00" xlink:href="#hl"/>
<use x="92.40" y="91.00" xlink:href="#hd"/>
<path d="M95.90 91.00v-21.00" class="stroke"/>
<use x="124.90" y="91.00" xlink:href="#hl"/>
<use x="124.90" y="91.00" xlink:href="#hd"/>
<path d="M128.40 91.00v-21.00" class="stroke"/>
<use x="157.20" y="88.00" xlink:href="#hd"/>
<path d="M160.70 88.00v-21.00" class="stroke"/>
<defs>
<path id="Hd" class="fill" d="m3 -1.6
	c-1 -1.8 -7 1.4 -6 3.2
	1 1.8 7 -1.4 6 -3.2
	m0.5 -0.3
	c2 3.8 -5 7.6 -7 3.8
	-2 -3.8 5 -7.6 7 -3.8"/>
</defs>
<use x="194.20" y="85.00" xlink:href="#Hd"/>
<path d="M197.70 85.00v-21.00" class="stroke"/>
<use x="239.80" y="88.00" xlink:href="#Hd"/>
<path d="M243.30 88.00v-21.00" class="stroke"/>
<use x="286.10" y="91.00" xlink:href="#hl"/>
<use x="286.10" y="91.00" xlink:href="#hd"/>
<path d="M289.60 91.00v-21.00" class="stroke"/>
<use x="318.50" y="85.00" xlink:href="#hd"/>
<path d="M322.00 85.00v-21.00" class="stroke"/>
<use x="350.80" y="88.00" xlink:href="#hd"/>
<path d="M354.30 88.00v-21.00" class="stroke"/>
<use x="383.20" y="88.00" xlink:href="#hd"/>
<path d="M386.70 88.00v-21.00" class="stroke"/>
<defs>
<path id="hl1" class="stroke" d="m-7 0h14"/>
</defs>
<use x="421.10" y="91.00" xlink:href="#hl1"/>
<defs>
<path id="HD" class="fill" d="m-2.7 -1.4
	c1.5 -2.8 6.9 0 5.3 2.7
	-1.5 2.8 -6.9 0 -5.3 -2.7
	m8.3 1.4
	c0 -1.5 -2.2 -3 -5.6 -3
	-3.4 0 -5.6 1.5 -5.6 3
	0 1.5 2.2 3 5.6 3
	3.4 0 5.6 -1.5 5.6 -3"/>
</defs>
<use x="421.10" y="91.00" xlink:href="#HD"/>
<use x="479.50" y="91.00" xlink:href="#hl"/>
<use x="479.50" y="91.00" xlink:href="#hd"/>
<path d="M483.00 91.00v-21.00" class="stroke"/>
<use x="511.90" y="91.00" xlink:href="#hl"/>
<use x="511.90" y="91.00" xlink:href="#hd"/>
<path d="M515.40 91.00v-21.00" class="stroke"/>
<use x="544.40" y="91.00" xlink:href="#hl"/>
<use x="544.40" y="91.00" xlink:href="#hd"/>
<path d="M547.90 91.00v-21.00" class="stroke"/>
<use x="576.70" y="88.00" xlink:href="#hd"/>
<path d="M580.20 88.00v-21.00" class="stroke"/>
<use x="613.70" y="85.00" xlink:href="#Hd"/>
<path d="M617.20 85.00v-21.00" class="stroke"/>
<use x="659.40" y="88.00" xlink:href="#Hd"/>
<path d="M662.90 88.00v-21.00" class="stroke"/>
<defs>
<path id="ubclef" class="fill" d="m-200 -87
	c124 -35 222 -78 254 -236
	43 -228 -167 -246 -192 -103
	59 -80 157 22 92 78
	-62 47 -115 -22 -106 -88
	21 -141 270 -136 274 52
	-1 175 -106 264 -322 297
	m357 -250
	c0 -36 51 -34 51 0
	0 37 -51 36 -51 0
	m-2 -129
	c0 -36 51 -34 51 0
	0 38 -51 37 -51 0"/>
<use id="bclef" transform="translate(0,18) scale(0.045)"
	xlink:href="#ubclef"/>
</defs>
<use x="22.00" y="125.00" xlink:href="#bclef"/>
<g font-weight="bold" font-family="serif" font-size="16px" 
	transform="translate(40.50,142.50) scale(1.2,1)">
	<text text-anchor="middle">4</text>
	<text y="-12" text-anchor="middle">4</text>
</g>
<defs>
<rect id="r1" class="fill"
	x="-3.5" y="-6" width="7" height="3"/>
</defs>
<use x="110.30" y="131.00" xlink:href="#r1"/>
<use x="226.10" y="131.00" xlink:href="#r1"/>
<use x="339.10" y="131.00" xlink:href="#r1"/>
<use x="435.80" y="131.00" xlink:href="#r1"/>
<use x="532.60" y="131.00" xlink:href="#r1"/>
<use x="645.60" y="131.00" xlink:href="#r1"/>
</g>
<g stroke-width="0.70" font-family="Times" font-size="20.00px" >
<path class="stroke" stroke-width="1"
	d="M10.00 271.00v-82.00"/>
<path class="stroke" stroke-width="1"
	d="M242.10 213.00v-24.00"/>
<path class="stroke" stroke-width="1"
	d="M242.10 271.00v-58.00"/>
<path class="stroke" stroke-width="1"
	d="M334.10 213.00v-24.00"/>
<path class="stroke" stroke-width="1"
	d="M334.10 271.00v-58.00"/>
<path class="stroke" stroke-width="1"
	d="M546.80 213.00v-24.00"/>
<path class="stroke" stroke-width="1"
	d="M546.80 271.00v-58.00"/>
<path class="stroke" stroke-width="1"
	d="M691.60 213.00v-24.00"/>
<path class="stroke" stroke-width="1"
	d="M691.60 271.00v-58.00"/>
<path d="m10.00 213.00
	h681.60
	M10.00 207.00
	h681.60
	M10.00 201.00
	h681.60
	M10.00 195.00
	h681.60
	M10.00 189.00
	h681.60
	" class="stroke"/>
<path d="m10.00 271.00
	h681.60
	M10.00 265.00
	h681.60
	M10.00 259.00
	h681.60
	M10.00 253.00
	h681.60
	M10.00 247.00
	h681.60
	" class="stroke"/>
<use x="22.00" y="207.00" xlink:href="#tclef"/>
<use x="48.00" y="219.00" xlink:href="#hl"/>
<use x="48.00" y="219.00" xlink:href="#hd"/>
<path d="M51.50 219.00v-21.00" class="stroke"/>
<use x="100.50" y="213.00" xlink:href="#hd"/>
<path d="M104.00 213.00v-21.00" class="stroke"/>
<use x="152.90" y="216.00" xlink:href="#hd"/>
<path d="M156.40 216.00v-21.00" class="stroke"/>
<use x="205.40" y="216.00" xlink:href="#hd"/>
<path d="M208.90 216.00v-21.00" class="stroke"/>
<use x="261.70" y="219.00" xlink:href="#hl1"/>
<use x="261.70" y="219.00" xlink:href="#HD"/>
<use x="352.70" y="216.00" xlink:href="#hd"/>
<path d="M356.20 216.00v-21.00" class="stroke"/>
<use x="405.20" y="216.00" xlink:href="#hd"/>
<path d="M408.70 216.00v-21.00" class="stroke"/>
<use x="457.60" y="216.00" xlink:href="#hd"/>
<path d="M461.10 216.00v-21.00" class="stroke"/>
<use x="510.10" y="216.00" xlink:href="#hd"/>
<path d="M513.60 216.00v-21.00" class="stroke"/>
<use x="565.40" y="213.00" xlink:href="#Hd"/>
<path d="M568.90 213.00v-21.00" class="stroke"/>
<use x="639.60" y="213.00" xlink:href="#Hd"/>
<path d="M643.10 213.00v-21.00" class="stroke"/>
<use x="22.00" y="253.00" xlink:href="#bclef"/>
<use x="137.10" y="259.00" xlink:href="#r1"/>
<use x="288.10" y="259.00" xlink:href="#r1"/>
<use x="440.50" y="259.00" xlink:href="#r1"/>
<use x="619.20" y="259.00" xlink:href="#r1"/>
</g>
<g stroke-width="0.70" font-family="Times" font-size="20.00px" >
<path class="stroke" stroke-width="1"
	d="M10.00 399.00v-82.00"/>
<path class="stroke" stroke-width="1"
	d="M178.20 341.00v-24.00"/>
<path class="stroke" stroke-width="1"
	d="M178.20 399.00v-58.00"/>
<path class="stroke" stroke-width="1"
	d="M241.40 341.00v-24.00"/>
<path class="stroke" stroke-width="1"
	d="M241.40 399.00v-58.00"/>
<path class="stroke" stroke-width="1"
	d="M385.60 341.00v-24.00"/>
<path class="stroke" stroke-width="1"
	d="M385.60 399.00v-58.00"/>
<path class="stroke" stroke-width="1"
	d="M484.20 341.00v-24.00"/>
<path class="stroke" stroke-width="1"
	d="M484.20 399.00v-58.00"/>
<path class="stroke" stroke-width="1"
	d="M628.40 341.00v-24.00"/>
<path class="stroke" stroke-width="1"
	d="M628.40 399.00v-58.00"/>
<path class="stroke" stroke-width="1"
	d="M691.60 341.00v-24.00"/>
<path class="stroke" stroke-width="1"
	d="M691.60 399.00v-58.00"/>
<path d="m10.00 341.00
	h681.60
	M10.00 335.00
	h681.60
	M10.00 329.00
	h681.60
	M10.00 323.00
	h681.60
	M10.00 317.00
	h681.60
	" class="stroke"/>
<path d="m10.00 399.00
	h681.60
	M10.00 393.00
	h681.60
	M10.00 387.00
	h681.60
	M10.00 381.00
	h681.60
	M10.00 375.00
	h681.60
	" class="stroke"/>
<use x="22.00" y="335.00" xlink:href="#tclef"/>
<use x="48.00" y="341.00" xlink:href="#hd"/>
<path d="M51.50 341.00v-21.00" class="stroke"/>
<use x="83.10" y="341.00" xlink:href="#hd"/>
<path d="M86.60 341.00v-21.00" class="stroke"/>
<use x="118.30" y="344.00" xlink:href="#hd"/>
<path d="M121.80 344.00v-21.00" class="stroke"/>
<use x="153.40" y="344.00" xlink:href="#hd"/>
<path d="M156.90 344.00v-21.00" class="stroke"/>
<use x="193.20" y="347.00" xlink:href="#hl1"/>
<use x="193.20" y="347.00" xlink:href="#HD"/>
<use x="255.40" y="347.00" xlink:href="#hl"/>
<use x="255.40" y="347.00" xlink:href="#hd"/>
<path d="M258.90 347.00v-21.00" class="stroke"/>
<use x="290.60" y="347.00" xlink:href="#hl"/>
<use x="290.60" y="347.00" xlink:href="#hd"/>
<path d="M294.10 347.00v-21.00" class="stroke"/>
<use x="325.80" y="347.00" xlink:href="#hl"/>
<use x="325.80" y="347.00" xlink:href="#hd"/>
<path d="M329.30 347.00v-21.00" class="stroke"/>
<use x="360.90" y="344.00" xlink:href="#hd"/>
<path d="M364.40 344.00v-21.00" class="stroke"/>
<use x="399.60" y="341.00" xlink:href="#Hd"/>
<path d="M403.10 341.00v-21.00" class="stroke"/>
<use x="449.30" y="344.00" xlink:href="#Hd"/>
<path d="M452.80 344.00v-21.00" class="stroke"/>
<use x="498.20" y="347.00" xlink:href="#hl"/>
<use x="498.20" y="347.00" xlink:href="#hd"/>
<path d="M501.70 347.00v-21.00" class="stroke"/>
<use x="533.30" y="341.00" xlink:href="#hd"/>
<path d="M536.80 341.00v-21.00" class="stroke"/>
<use x="568.50" y="344.00" xlink:href="#hd"/>
<path d="M572.00 344.00v-21.00" class="stroke"/>
<use x="603.60" y="344.00" xlink:href="#hd"/>
<path d="M607.10 344.00v-21.00" class="stroke"/>
<use x="643.40" y="347.00" xlink:href="#hl1"/>
<use x="643.40" y="347.00" xlink:href="#HD"/>
<use x="22.00" y="381.00" xlink:href="#bclef"/>
<use x="105.10" y="387.00" xlink:href="#r1"/>
<use x="209.80" y="387.00" xlink:href="#r1"/>
<use x="313.50" y="387.00" xlink:href="#r1"/>
<use x="434.90" y="387.00" xlink:href="#r1"/>
<use x="556.30" y="387.00" xlink:href="#r1"/>
<use x="660.00" y="387.00" xlink:href="#r1"/>
</g>
</svg>
