<?xml version="1.0" standalone="no"?>
<!DOCTYPE svg PUBLIC "-//W3C//DTD SVG 1.1//EN"
	"http://www.w3.org/Graphics/SVG/1.1/DTD/svg11.dtd">
<svg xmlns="http://www.w3.org/2000/svg" version="1.1"
	xmlns:xlink="http://www.w3.org/1999/xlink"
	color="black"
	width="701.60px" height="294.00px">
<style type="text/css">
.fill {fill: currentColor}
.stroke {stroke: currentColor; fill: none}
text{white-space: pre}
</style>
<title>BeginnerCourse/06-DownAndUp.abc (1) tune 1</title>
<!-- Creator: abcm2ps-8.14.6 -->
<!-- CreationDate: Dec  6, 2020 19:00 -->
<!-- CommandLine: -i -g BeginnerCourse/06-DownAndUp.abc -O build/MusicWeb/BeginnerCourse/06-DownAndUp.svg -->
<g stroke-width="0.70">
<!-- title: Down and Up -->
</g>
<g stroke-width="0.70" style="font:20.00px Times">
<text x="350.80" y="22.00" text-anchor="middle">Down and Up</text>
</g>
<g stroke-width="0.70" style="font:20.00px Times">
<path class="stroke" stroke-width="1"
	d="M10.00 143.00v-82.00"/>
<path class="stroke" stroke-width="1"
	d="M162.90 85.00v-24.00"/>
<path class="stroke" stroke-width="1"
	d="M162.90 143.00v-58.00"/>
<path class="stroke" stroke-width="1"
	d="M243.60 85.00v-24.00"/>
<path class="stroke" stroke-width="1"
	d="M243.60 143.00v-58.00"/>
<path class="stroke" stroke-width="1"
	d="M360.50 85.00v-24.00"/>
<path class="stroke" stroke-width="1"
	d="M360.50 143.00v-58.00"/>
<path class="stroke" stroke-width="1"
	d="M441.20 85.00v-24.00"/>
<path class="stroke" stroke-width="1"
	d="M441.20 143.00v-58.00"/>
<path class="stroke" stroke-width="1"
	d="M494.00 85.00v-24.00"/>
<path class="stroke" stroke-width="1"
	d="M494.00 143.00v-58.00"/>
<path class="stroke" stroke-width="1"
	d="M610.90 85.00v-24.00"/>
<path class="stroke" stroke-width="1"
	d="M610.90 143.00v-58.00"/>
<path class="stroke" stroke-width="1"
	d="M691.60 85.00v-24.00"/>
<path class="stroke" stroke-width="1"
	d="M691.60 143.00v-58.00"/>
<path d="m10.00 85.00
	h681.60
	M10.00 79.00
	h681.60
	M10.00 73.00
	h681.60
	M10.00 67.00
	h681.60
	M10.00 61.00
	h681.60
	" class="stroke"/>
<path d="m10.00 143.00
	h681.60
	M10.00 137.00
	h681.60
	M10.00 131.00
	h681.60
	M10.00 125.00
	h681.60
	M10.00 119.00
	h681.60
	" class="stroke"/>
<defs>
<path id="utclef" class="fill" d="m-50 -90
	c-72 -41 -72 -158 52 -188
	150 -10 220 188 90 256
	-114 52 -275 0 -293 -136
	-15 -181 93 -229 220 -334
	88 -87 79 -133 62 -210
	-51 33 -94 105 -89 186
	17 267 36 374 49 574
	6 96 -19 134 -77 135
	-80 1 -126 -93 -61 -133
	85 -41 133 101 31 105
	23 17 92 37 90 -92
	-10 -223 -39 -342 -50 -617
	0 -90 0 -162 96 -232
	56 72 63 230 22 289
	-74 106 -257 168 -255 316
	9 153 148 185 252 133
	86 -65 29 -192 -80 -176
	-71 12 -105 67 -59 124"/>
<use id="tclef" transform="translate(0,6) scale(0.045)"
	xlink:href="#utclef"/>
</defs>
<use x="22.00" y="79.00" xlink:href="#tclef"/>
<g style="font:bold 16px serif"
	transform="translate(40.50,84.50) scale(1.2,1)">
	<text text-anchor="middle">4</text>
	<text y="-12" text-anchor="middle">4</text>
</g>
<defs>
<rect id="r1" class="fill"
	x="-3.5" y="-6" width="7" height="3"/>
</defs>
<use x="101.70" y="73.00" xlink:href="#r1"/>
<use x="203.20" y="73.00" xlink:href="#r1"/>
<use x="302.00" y="73.00" xlink:href="#r1"/>
<use x="400.80" y="73.00" xlink:href="#r1"/>
<use x="467.60" y="73.00" xlink:href="#r1"/>
<use x="552.50" y="73.00" xlink:href="#r1"/>
<use x="651.30" y="73.00" xlink:href="#r1"/>
<defs>
<path id="ubclef" class="fill" d="m-200 -87
	c124 -35 222 -78 254 -236
	43 -228 -167 -246 -192 -103
	59 -80 157 22 92 78
	-62 47 -115 -22 -106 -88
	21 -141 270 -136 274 52
	-1 175 -106 264 -322 297
	m357 -250
	c0 -36 51 -34 51 0
	0 37 -51 36 -51 0
	m-2 -129
	c0 -36 51 -34 51 0
	0 38 -51 37 -51 0"/>
<use id="bclef" transform="translate(0,18) scale(0.045)"
	xlink:href="#ubclef"/>
</defs>
<use x="22.00" y="125.00" xlink:href="#bclef"/>
<g style="font:bold 16px serif"
	transform="translate(40.50,142.50) scale(1.2,1)">
	<text text-anchor="middle">4</text>
	<text y="-12" text-anchor="middle">4</text>
</g>
<defs>
<path id="hl" class="stroke" d="m-6 0h12"/>
</defs>
<use x="60.00" y="113.00" xlink:href="#hl"/>
<defs>
<ellipse id="hd" rx="4.1" ry="2.9"
	transform="rotate(-20)" class="fill"/>
</defs>
<use x="60.00" y="113.00" xlink:href="#hd"/>
<path d="M56.50 113.00v21.00" class="stroke"/>
<use x="87.70" y="116.00" xlink:href="#hd"/>
<path d="M84.20 116.00v21.00" class="stroke"/>
<use x="115.30" y="119.00" xlink:href="#hd"/>
<path d="M111.80 119.00v21.00" class="stroke"/>
<use x="143.00" y="122.00" xlink:href="#hd"/>
<path d="M139.50 122.00v21.00" class="stroke"/>
<defs>
<path id="Hd" class="fill" d="m3 -1.6
	c-1 -1.8 -7 1.4 -6 3.2
	1 1.8 7 -1.4 6 -3.2
	m0.5 -0.3
	c2 3.8 -5 7.6 -7 3.8
	-2 -3.8 5 -7.6 7 -3.8"/>
</defs>
<use x="176.90" y="125.00" xlink:href="#Hd"/>
<path d="M173.40 125.00v21.00" class="stroke"/>
<use x="215.80" y="125.00" xlink:href="#Hd"/>
<path d="M212.30 125.00v21.00" class="stroke"/>
<use x="257.60" y="125.00" xlink:href="#hd"/>
<path d="M254.10 125.00v21.00" class="stroke"/>
<use x="285.20" y="122.00" xlink:href="#hd"/>
<path d="M281.70 122.00v21.00" class="stroke"/>
<use x="312.90" y="119.00" xlink:href="#hd"/>
<path d="M309.40 119.00v21.00" class="stroke"/>
<use x="340.50" y="116.00" xlink:href="#hd"/>
<path d="M337.00 116.00v21.00" class="stroke"/>
<use x="374.50" y="113.00" xlink:href="#hl"/>
<use x="374.50" y="113.00" xlink:href="#Hd"/>
<path d="M371.00 113.00v21.00" class="stroke"/>
<use x="413.40" y="113.00" xlink:href="#hl"/>
<use x="413.40" y="113.00" xlink:href="#Hd"/>
<path d="M409.90 113.00v21.00" class="stroke"/>
<use x="467.60" y="131.00" xlink:href="#r1"/>
<use x="508.00" y="113.00" xlink:href="#hl"/>
<use x="508.00" y="113.00" xlink:href="#hd"/>
<path d="M504.50 113.00v21.00" class="stroke"/>
<use x="535.70" y="116.00" xlink:href="#hd"/>
<path d="M532.20 116.00v21.00" class="stroke"/>
<use x="563.40" y="119.00" xlink:href="#hd"/>
<path d="M559.90 119.00v21.00" class="stroke"/>
<use x="591.00" y="122.00" xlink:href="#hd"/>
<path d="M587.50 122.00v21.00" class="stroke"/>
<use x="624.90" y="125.00" xlink:href="#Hd"/>
<path d="M621.40 125.00v21.00" class="stroke"/>
<use x="663.80" y="125.00" xlink:href="#Hd"/>
<path d="M660.30 125.00v21.00" class="stroke"/>
</g>
<g stroke-width="0.70" style="font:20.00px Times">
<path class="stroke" stroke-width="1"
	d="M10.00 271.00v-82.00"/>
<path class="stroke" stroke-width="1"
	d="M158.70 213.00v-24.00"/>
<path class="stroke" stroke-width="1"
	d="M158.70 271.00v-58.00"/>
<path class="stroke" stroke-width="1"
	d="M244.60 213.00v-24.00"/>
<path class="stroke" stroke-width="1"
	d="M244.60 271.00v-58.00"/>
<path class="stroke" stroke-width="1"
	d="M300.40 213.00v-24.00"/>
<path class="stroke" stroke-width="1"
	d="M300.40 271.00v-58.00"/>
<path class="stroke" stroke-width="1"
	d="M425.20 213.00v-24.00"/>
<path class="stroke" stroke-width="1"
	d="M425.20 271.00v-58.00"/>
<path class="stroke" stroke-width="1"
	d="M549.90 213.00v-24.00"/>
<path class="stroke" stroke-width="1"
	d="M549.90 271.00v-58.00"/>
<path class="stroke" stroke-width="1"
	d="M635.80 213.00v-24.00"/>
<path class="stroke" stroke-width="1"
	d="M635.80 271.00v-58.00"/>
<path class="stroke" stroke-width="1"
	d="M691.60 213.00v-24.00"/>
<path class="stroke" stroke-width="1"
	d="M691.60 271.00v-58.00"/>
<path d="m10.00 213.00
	h681.60
	M10.00 207.00
	h681.60
	M10.00 201.00
	h681.60
	M10.00 195.00
	h681.60
	M10.00 189.00
	h681.60
	" class="stroke"/>
<path d="m10.00 271.00
	h681.60
	M10.00 265.00
	h681.60
	M10.00 259.00
	h681.60
	M10.00 253.00
	h681.60
	M10.00 247.00
	h681.60
	" class="stroke"/>
<use x="22.00" y="207.00" xlink:href="#tclef"/>
<use x="95.40" y="201.00" xlink:href="#r1"/>
<use x="201.70" y="201.00" xlink:href="#r1"/>
<use x="272.50" y="201.00" xlink:href="#r1"/>
<use x="362.80" y="201.00" xlink:href="#r1"/>
<use x="487.50" y="201.00" xlink:href="#r1"/>
<use x="592.80" y="201.00" xlink:href="#r1"/>
<use x="663.70" y="201.00" xlink:href="#r1"/>
<use x="22.00" y="253.00" xlink:href="#bclef"/>
<use x="48.00" y="253.00" xlink:href="#hd"/>
<path d="M44.50 253.00v21.00" class="stroke"/>
<use x="77.80" y="250.00" xlink:href="#hd"/>
<path d="M74.30 250.00v21.00" class="stroke"/>
<use x="107.60" y="247.00" xlink:href="#hd"/>
<path d="M104.10 247.00v21.00" class="stroke"/>
<use x="137.40" y="244.00" xlink:href="#hd"/>
<path d="M133.90 244.00v21.00" class="stroke"/>
<use x="172.70" y="241.00" xlink:href="#hl"/>
<use x="172.70" y="241.00" xlink:href="#Hd"/>
<path d="M169.20 241.00v21.00" class="stroke"/>
<use x="214.80" y="241.00" xlink:href="#hl"/>
<use x="214.80" y="241.00" xlink:href="#Hd"/>
<path d="M211.30 241.00v21.00" class="stroke"/>
<use x="272.50" y="259.00" xlink:href="#r1"/>
<use x="314.40" y="241.00" xlink:href="#hl"/>
<use x="314.40" y="241.00" xlink:href="#hd"/>
<path d="M310.90 241.00v21.00" class="stroke"/>
<use x="344.30" y="244.00" xlink:href="#hd"/>
<path d="M340.80 244.00v21.00" class="stroke"/>
<use x="374.10" y="247.00" xlink:href="#hd"/>
<path d="M370.60 247.00v21.00" class="stroke"/>
<use x="403.90" y="250.00" xlink:href="#hd"/>
<path d="M400.40 250.00v21.00" class="stroke"/>
<use x="439.20" y="253.00" xlink:href="#hd"/>
<path d="M435.70 253.00v21.00" class="stroke"/>
<use x="469.00" y="250.00" xlink:href="#hd"/>
<path d="M465.50 250.00v21.00" class="stroke"/>
<use x="498.80" y="247.00" xlink:href="#hd"/>
<path d="M495.30 247.00v21.00" class="stroke"/>
<use x="528.60" y="244.00" xlink:href="#hd"/>
<path d="M525.10 244.00v21.00" class="stroke"/>
<use x="563.90" y="241.00" xlink:href="#hl"/>
<use x="563.90" y="241.00" xlink:href="#Hd"/>
<path d="M560.40 241.00v21.00" class="stroke"/>
<use x="606.00" y="241.00" xlink:href="#hl"/>
<use x="606.00" y="241.00" xlink:href="#Hd"/>
<path d="M602.50 241.00v21.00" class="stroke"/>
<use x="663.70" y="259.00" xlink:href="#r1"/>
</g>
</svg>
