<?xml version="1.0" standalone="no"?>
<!DOCTYPE svg PUBLIC "-//W3C//DTD SVG 1.1//EN"
	"http://www.w3.org/Graphics/SVG/1.1/DTD/svg11.dtd">
<svg xmlns="http://www.w3.org/2000/svg" version="1.1"
	xmlns:xlink="http://www.w3.org/1999/xlink"
	color="black"
	width="701.60px" height="166.00px">
<style type="text/css">
.fill {fill: currentColor}
.stroke {stroke: currentColor; fill: none}
text{white-space: pre}
</style>
<title>BoosterMusic/02-LavendersBlue.abc (77) tune 1</title>
<!-- Creator: abcm2ps-8.14.6 -->
<!-- CreationDate: Dec  6, 2020 19:00 -->
<!-- CommandLine: -i -g BoosterMusic/02-LavendersBlue.abc -O build/MusicWeb/BoosterMusic/02-LavendersBlue.svg -->
<g stroke-width="0.70">
<!-- title: Lavender's Blue -->
</g>
<g stroke-width="0.70" font-family="Times" font-size="20.00px" >
<text x="350.80" y="22.00" text-anchor="middle">Lavender&apos;s Blue</text>
</g>
<g stroke-width="0.70" font-family="Times" font-size="20.00px" >
<path class="stroke" stroke-width="1"
	d="M10.00 143.00v-82.00"/>
<defs>
<g id="rdots" class="fill">
	<circle cx="0" cy="-9" r="1.2"/>
	<circle cx="0" cy="-15" r="1.2"/>
</g>
</defs>
<use x="69.00" y="85.00" xlink:href="#rdots"/>
<path class="stroke" stroke-width="1"
	d="M65.00 85.00v-24.00"/>
<path class="stroke" stroke-width="3"
	d="M60.50 85.00v-24.00"/>
<use x="69.00" y="143.00" xlink:href="#rdots"/>
<path class="stroke" stroke-width="1"
	d="M65.00 143.00v-58.00"/>
<path class="stroke" stroke-width="3"
	d="M60.50 143.00v-58.00"/>
<path class="stroke" stroke-width="1"
	d="M151.70 85.00v-24.00"/>
<path class="stroke" stroke-width="1"
	d="M151.70 143.00v-58.00"/>
<path class="stroke" stroke-width="1"
	d="M252.80 85.00v-24.00"/>
<path class="stroke" stroke-width="1"
	d="M252.80 143.00v-58.00"/>
<path class="stroke" stroke-width="1"
	d="M334.50 85.00v-24.00"/>
<path class="stroke" stroke-width="1"
	d="M334.50 143.00v-58.00"/>
<path class="stroke" stroke-width="1"
	d="M378.20 85.00v-24.00"/>
<path class="stroke" stroke-width="1"
	d="M378.20 143.00v-58.00"/>
<path class="stroke" stroke-width="1"
	d="M459.90 85.00v-24.00"/>
<path class="stroke" stroke-width="1"
	d="M459.90 143.00v-58.00"/>
<path class="stroke" stroke-width="1"
	d="M561.10 85.00v-24.00"/>
<path class="stroke" stroke-width="1"
	d="M561.10 143.00v-58.00"/>
<path class="stroke" stroke-width="1"
	d="M642.80 85.00v-24.00"/>
<path class="stroke" stroke-width="1"
	d="M642.80 143.00v-58.00"/>
<path class="stroke" stroke-width="3"
	d="M690.10 85.00v-24.00"/>
<path class="stroke" stroke-width="1"
	d="M685.60 85.00v-24.00"/>
<use x="681.60" y="85.00" xlink:href="#rdots"/>
<path class="stroke" stroke-width="3"
	d="M690.10 143.00v-58.00"/>
<path class="stroke" stroke-width="1"
	d="M685.60 143.00v-58.00"/>
<use x="681.60" y="143.00" xlink:href="#rdots"/>
<path d="m10.00 85.00
	h681.60
	M10.00 79.00
	h681.60
	M10.00 73.00
	h681.60
	M10.00 67.00
	h681.60
	M10.00 61.00
	h681.60
	" class="stroke"/>
<path d="m10.00 143.00
	h681.60
	M10.00 137.00
	h681.60
	M10.00 131.00
	h681.60
	M10.00 125.00
	h681.60
	M10.00 119.00
	h681.60
	" class="stroke"/>
<defs>
<path id="utclef" class="fill" d="m-50 -90
	c-72 -41 -72 -158 52 -188
	150 -10 220 188 90 256
	-114 52 -275 0 -293 -136
	-15 -181 93 -229 220 -334
	88 -87 79 -133 62 -210
	-51 33 -94 105 -89 186
	17 267 36 374 49 574
	6 96 -19 134 -77 135
	-80 1 -126 -93 -61 -133
	85 -41 133 101 31 105
	23 17 92 37 90 -92
	-10 -223 -39 -342 -50 -617
	0 -90 0 -162 96 -232
	56 72 63 230 22 289
	-74 106 -257 168 -255 316
	9 153 148 185 252 133
	86 -65 29 -192 -80 -176
	-71 12 -105 67 -59 124"/>
<use id="tclef" transform="translate(0,6) scale(0.045)"
	xlink:href="#utclef"/>
</defs>
<use x="22.00" y="79.00" xlink:href="#tclef"/>
<g font-weight="bold" font-family="serif" font-size="16px" 
	transform="translate(40.50,84.50) scale(1.2,1)">
	<text text-anchor="middle">4</text>
	<text y="-12" text-anchor="middle">3</text>
</g>
<defs>
<path id="hl" class="stroke" d="m-6 0h12"/>
</defs>
<use x="84.00" y="91.00" xlink:href="#hl"/>
<defs>
<ellipse id="hd" rx="4.1" ry="2.9"
	transform="rotate(-20)" class="fill"/>
</defs>
<use x="84.00" y="91.00" xlink:href="#hd"/>
<path d="M87.50 91.00v-21.00" class="stroke"/>
<use x="108.70" y="79.00" xlink:href="#hd"/>
<path d="M112.20 79.00v-21.00" class="stroke"/>
<use x="133.30" y="79.00" xlink:href="#hd"/>
<path d="M136.80 79.00v-21.00" class="stroke"/>
<use x="165.70" y="79.00" xlink:href="#hd"/>
<path d="M169.20 79.00v-21.00" class="stroke"/>
<path class="fill"
	d="M193.50 62.20l49.50 6.70v3.20l-49.50 -6.70"/>
<use x="190.40" y="82.00" xlink:href="#hd"/>
<path d="M193.90 82.00v-18.80" class="stroke"/>
<use x="206.70" y="85.00" xlink:href="#hd"/>
<path d="M210.20 85.00v-19.60" class="stroke"/>
<use x="222.90" y="88.00" xlink:href="#hd"/>
<path d="M226.40 88.00v-20.40" class="stroke"/>
<use x="239.20" y="91.00" xlink:href="#hl"/>
<use x="239.20" y="91.00" xlink:href="#hd"/>
<path d="M242.70 91.00v-21.20" class="stroke"/>
<use x="266.80" y="91.00" xlink:href="#hl"/>
<use x="266.80" y="91.00" xlink:href="#hd"/>
<path d="M270.30 91.00v-21.00" class="stroke"/>
<use x="291.50" y="76.00" xlink:href="#hd"/>
<path d="M295.00 76.00v-21.00" class="stroke"/>
<use x="316.20" y="76.00" xlink:href="#hd"/>
<path d="M319.70 76.00v-21.00" class="stroke"/>
<defs>
<path id="Hd" class="fill" d="m3 -1.6
	c-1 -1.8 -7 1.4 -6 3.2
	1 1.8 7 -1.4 6 -3.2
	m0.5 -0.3
	c2 3.8 -5 7.6 -7 3.8
	-2 -3.8 5 -7.6 7 -3.8"/>
</defs>
<use x="348.50" y="76.00" xlink:href="#Hd"/>
<circle class="fill" cx="357.20" cy="76.00" r="1.2"/>
<path d="M352.00 76.00v-21.00" class="stroke"/>
<use x="392.20" y="91.00" xlink:href="#hl"/>
<use x="392.20" y="91.00" xlink:href="#hd"/>
<path d="M395.70 91.00v-21.00" class="stroke"/>
<use x="416.90" y="79.00" xlink:href="#hd"/>
<path d="M420.40 79.00v-21.00" class="stroke"/>
<use x="441.60" y="79.00" xlink:href="#hd"/>
<path d="M445.10 79.00v-21.00" class="stroke"/>
<use x="473.90" y="79.00" xlink:href="#hd"/>
<path d="M477.40 79.00v-21.00" class="stroke"/>
<path class="fill"
	d="M501.80 62.20l49.50 6.70v3.20l-49.50 -6.70"/>
<use x="498.60" y="82.00" xlink:href="#hd"/>
<path d="M502.10 82.00v-18.80" class="stroke"/>
<use x="514.90" y="85.00" xlink:href="#hd"/>
<path d="M518.40 85.00v-19.60" class="stroke"/>
<use x="531.20" y="88.00" xlink:href="#hd"/>
<path d="M534.70 88.00v-20.40" class="stroke"/>
<use x="547.50" y="91.00" xlink:href="#hl"/>
<use x="547.50" y="91.00" xlink:href="#hd"/>
<path d="M551.00 91.00v-21.20" class="stroke"/>
<use x="575.10" y="82.00" xlink:href="#hd"/>
<path d="M578.60 82.00v-21.00" class="stroke"/>
<use x="599.80" y="85.00" xlink:href="#hd"/>
<path d="M603.30 85.00v-21.00" class="stroke"/>
<use x="624.40" y="88.00" xlink:href="#hd"/>
<path d="M627.90 88.00v-21.00" class="stroke"/>
<use x="656.80" y="91.00" xlink:href="#hl"/>
<use x="656.80" y="91.00" xlink:href="#Hd"/>
<circle class="fill" cx="665.50" cy="88.00" r="1.2"/>
<path d="M660.30 91.00v-21.00" class="stroke"/>
<defs>
<path id="ubclef" class="fill" d="m-200 -87
	c124 -35 222 -78 254 -236
	43 -228 -167 -246 -192 -103
	59 -80 157 22 92 78
	-62 47 -115 -22 -106 -88
	21 -141 270 -136 274 52
	-1 175 -106 264 -322 297
	m357 -250
	c0 -36 51 -34 51 0
	0 37 -51 36 -51 0
	m-2 -129
	c0 -36 51 -34 51 0
	0 38 -51 37 -51 0"/>
<use id="bclef" transform="translate(0,18) scale(0.045)"
	xlink:href="#ubclef"/>
</defs>
<use x="22.00" y="125.00" xlink:href="#bclef"/>
<g font-weight="bold" font-family="serif" font-size="16px" 
	transform="translate(40.50,142.50) scale(1.2,1)">
	<text text-anchor="middle">4</text>
	<text y="-12" text-anchor="middle">3</text>
</g>
<defs>
<rect id="r1" class="fill"
	x="-3.5" y="-6" width="7" height="3"/>
</defs>
<use x="110.90" y="131.00" xlink:href="#r1"/>
<use x="202.30" y="131.00" xlink:href="#r1"/>
<use x="293.70" y="131.00" xlink:href="#r1"/>
<use x="356.40" y="131.00" xlink:href="#r1"/>
<use x="419.10" y="131.00" xlink:href="#r1"/>
<use x="510.50" y="131.00" xlink:href="#r1"/>
<use x="601.90" y="131.00" xlink:href="#r1"/>
<use x="667.20" y="131.00" xlink:href="#r1"/>
</g>
</svg>
