<?xml version="1.0" standalone="no"?>
<!DOCTYPE svg PUBLIC "-//W3C//DTD SVG 1.1//EN"
	"http://www.w3.org/Graphics/SVG/1.1/DTD/svg11.dtd">
<svg xmlns="http://www.w3.org/2000/svg" version="1.1"
	xmlns:xlink="http://www.w3.org/1999/xlink"
	color="black"
	width="701.60px" height="294.00px">
<style type="text/css">
.fill {fill: currentColor}
.stroke {stroke: currentColor; fill: none}
text{white-space: pre}
</style>
<title>BoosterMusic/03-SkipToMyLou.abc (1) tune 1</title>
<!-- Creator: abcm2ps-8.14.6 -->
<!-- CreationDate: Dec  6, 2020 19:00 -->
<!-- CommandLine: -i -g BoosterMusic/03-SkipToMyLou.abc -O build/MusicWeb/BoosterMusic/03-SkipToMyLou.svg -->
<g stroke-width="0.70">
<!-- title: Skip to My Lou -->
</g>
<g stroke-width="0.70" style="font:20.00px Times">
<text x="350.80" y="22.00" text-anchor="middle">Skip to My Lou</text>
</g>
<g stroke-width="0.70" style="font:20.00px Times">
<path class="stroke" stroke-width="1"
	d="M10.00 143.00v-82.00"/>
<defs>
<g id="rdots" class="fill">
	<circle cx="0" cy="-9" r="1.2"/>
	<circle cx="0" cy="-15" r="1.2"/>
</g>
</defs>
<use x="69.00" y="85.00" xlink:href="#rdots"/>
<path class="stroke" stroke-width="1"
	d="M65.00 85.00v-24.00"/>
<path class="stroke" stroke-width="3"
	d="M60.50 85.00v-24.00"/>
<use x="69.00" y="143.00" xlink:href="#rdots"/>
<path class="stroke" stroke-width="1"
	d="M65.00 143.00v-58.00"/>
<path class="stroke" stroke-width="3"
	d="M60.50 143.00v-58.00"/>
<path class="stroke" stroke-width="1"
	d="M154.80 85.00v-24.00"/>
<path class="stroke" stroke-width="1"
	d="M154.80 143.00v-58.00"/>
<path class="stroke" stroke-width="1"
	d="M226.30 85.00v-24.00"/>
<path class="stroke" stroke-width="1"
	d="M226.30 143.00v-58.00"/>
<path class="stroke" stroke-width="1"
	d="M310.70 85.00v-24.00"/>
<path class="stroke" stroke-width="1"
	d="M310.70 143.00v-58.00"/>
<path class="stroke" stroke-width="1"
	d="M382.20 85.00v-24.00"/>
<path class="stroke" stroke-width="1"
	d="M382.20 143.00v-58.00"/>
<path class="stroke" stroke-width="1"
	d="M466.90 85.00v-24.00"/>
<path class="stroke" stroke-width="1"
	d="M466.90 143.00v-58.00"/>
<path class="stroke" stroke-width="1"
	d="M538.50 85.00v-24.00"/>
<path class="stroke" stroke-width="1"
	d="M538.50 143.00v-58.00"/>
<path class="stroke" stroke-width="1"
	d="M631.70 85.00v-24.00"/>
<path class="stroke" stroke-width="1"
	d="M631.70 143.00v-58.00"/>
<path class="stroke" stroke-width="1"
	d="M691.60 85.00v-24.00"/>
<path class="stroke" stroke-width="1"
	d="M691.60 143.00v-58.00"/>
<path d="m10.00 85.00
	h681.60
	M10.00 79.00
	h681.60
	M10.00 73.00
	h681.60
	M10.00 67.00
	h681.60
	M10.00 61.00
	h681.60
	" class="stroke"/>
<path d="m10.00 143.00
	h681.60
	M10.00 137.00
	h681.60
	M10.00 131.00
	h681.60
	M10.00 125.00
	h681.60
	M10.00 119.00
	h681.60
	" class="stroke"/>
<defs>
<path id="utclef" class="fill" d="m-50 -90
	c-72 -41 -72 -158 52 -188
	150 -10 220 188 90 256
	-114 52 -275 0 -293 -136
	-15 -181 93 -229 220 -334
	88 -87 79 -133 62 -210
	-51 33 -94 105 -89 186
	17 267 36 374 49 574
	6 96 -19 134 -77 135
	-80 1 -126 -93 -61 -133
	85 -41 133 101 31 105
	23 17 92 37 90 -92
	-10 -223 -39 -342 -50 -617
	0 -90 0 -162 96 -232
	56 72 63 230 22 289
	-74 106 -257 168 -255 316
	9 153 148 185 252 133
	86 -65 29 -192 -80 -176
	-71 12 -105 67 -59 124"/>
<use id="tclef" transform="translate(0,6) scale(0.045)"
	xlink:href="#utclef"/>
</defs>
<use x="22.00" y="79.00" xlink:href="#tclef"/>
<g style="font:bold 16px serif"
	transform="translate(40.50,84.50) scale(1.2,1)">
	<text text-anchor="middle">4</text>
	<text y="-12" text-anchor="middle">4</text>
</g>
<defs>
<ellipse id="hd" rx="4.1" ry="2.9"
	transform="rotate(-20)" class="fill"/>
</defs>
<use x="83.00" y="85.00" xlink:href="#hd"/>
<path d="M86.50 85.00v-21.00" class="stroke"/>
<use x="101.80" y="85.00" xlink:href="#hd"/>
<path d="M105.30 85.00v-21.00" class="stroke"/>
<defs>
<rect id="r2" class="fill"
	x="-3.5" y="-3" width="7" height="3"/>
</defs>
<use x="120.80" y="73.00" xlink:href="#r2"/>
<use x="168.80" y="85.00" xlink:href="#hd"/>
<path d="M172.30 85.00v-21.00" class="stroke"/>
<use x="187.60" y="85.00" xlink:href="#hd"/>
<path d="M191.10 85.00v-21.00" class="stroke"/>
<defs>
<path id="Hd" class="fill" d="m3 -1.6
	c-1 -1.8 -7 1.4 -6 3.2
	1 1.8 7 -1.4 6 -3.2
	m0.5 -0.3
	c2 3.8 -5 7.6 -7 3.8
	-2 -3.8 5 -7.6 7 -3.8"/>
</defs>
<use x="206.60" y="79.00" xlink:href="#Hd"/>
<path d="M210.10 79.00v-21.00" class="stroke"/>
<use x="239.30" y="88.00" xlink:href="#hd"/>
<path d="M242.80 88.00v-21.00" class="stroke"/>
<use x="258.10" y="88.00" xlink:href="#hd"/>
<path d="M261.60 88.00v-21.00" class="stroke"/>
<use x="277.10" y="73.00" xlink:href="#r2"/>
<use x="324.70" y="88.00" xlink:href="#hd"/>
<path d="M328.20 88.00v-21.00" class="stroke"/>
<use x="343.50" y="88.00" xlink:href="#hd"/>
<path d="M347.00 88.00v-21.00" class="stroke"/>
<use x="362.50" y="82.00" xlink:href="#Hd"/>
<path d="M366.00 82.00v-21.00" class="stroke"/>
<use x="395.20" y="85.00" xlink:href="#hd"/>
<path d="M398.70 85.00v-21.00" class="stroke"/>
<use x="414.00" y="85.00" xlink:href="#hd"/>
<path d="M417.50 85.00v-21.00" class="stroke"/>
<use x="433.00" y="73.00" xlink:href="#r2"/>
<use x="480.90" y="85.00" xlink:href="#hd"/>
<path d="M484.40 85.00v-21.00" class="stroke"/>
<use x="499.80" y="85.00" xlink:href="#hd"/>
<path d="M503.30 85.00v-21.00" class="stroke"/>
<use x="518.80" y="79.00" xlink:href="#Hd"/>
<path d="M522.30 79.00v-21.00" class="stroke"/>
<use x="552.50" y="88.00" xlink:href="#hd"/>
<path d="M556.00 88.00v-21.00" class="stroke"/>
<path class="fill"
	d="M574.50 63.60l13.50 -2.20v3.20l-13.50 2.20"/>
<use x="571.30" y="85.00" xlink:href="#hd"/>
<path d="M574.80 85.00v-20.50" class="stroke"/>
<use x="584.10" y="82.00" xlink:href="#hd"/>
<path d="M587.60 82.00v-19.50" class="stroke"/>
<use x="598.10" y="85.00" xlink:href="#hd"/>
<path d="M601.60 85.00v-21.00" class="stroke"/>
<use x="616.90" y="88.00" xlink:href="#hd"/>
<path d="M620.40 88.00v-21.00" class="stroke"/>
<defs>
<rect id="r1" class="fill"
	x="-3.5" y="-6" width="7" height="3"/>
</defs>
<use x="661.60" y="73.00" xlink:href="#r1"/>
<defs>
<path id="ubclef" class="fill" d="m-200 -87
	c124 -35 222 -78 254 -236
	43 -228 -167 -246 -192 -103
	59 -80 157 22 92 78
	-62 47 -115 -22 -106 -88
	21 -141 270 -136 274 52
	-1 175 -106 264 -322 297
	m357 -250
	c0 -36 51 -34 51 0
	0 37 -51 36 -51 0
	m-2 -129
	c0 -36 51 -34 51 0
	0 38 -51 37 -51 0"/>
<use id="bclef" transform="translate(0,18) scale(0.045)"
	xlink:href="#ubclef"/>
</defs>
<use x="22.00" y="125.00" xlink:href="#bclef"/>
<g style="font:bold 16px serif"
	transform="translate(40.50,142.50) scale(1.2,1)">
	<text text-anchor="middle">4</text>
	<text y="-12" text-anchor="middle">4</text>
</g>
<use x="83.00" y="131.00" xlink:href="#r2"/>
<defs>
<path id="hl" class="stroke" d="m-6 0h12"/>
</defs>
<use x="120.80" y="113.00" xlink:href="#hl"/>
<use x="120.80" y="113.00" xlink:href="#hd"/>
<path d="M117.30 113.00v21.00" class="stroke"/>
<use x="140.00" y="113.00" xlink:href="#hl"/>
<use x="140.00" y="113.00" xlink:href="#hd"/>
<path d="M136.50 113.00v21.00" class="stroke"/>
<use x="190.50" y="131.00" xlink:href="#r1"/>
<use x="239.30" y="131.00" xlink:href="#r2"/>
<use x="277.10" y="116.00" xlink:href="#hd"/>
<path d="M273.60 116.00v21.00" class="stroke"/>
<use x="295.90" y="116.00" xlink:href="#hd"/>
<path d="M292.40 116.00v21.00" class="stroke"/>
<use x="346.40" y="131.00" xlink:href="#r1"/>
<use x="395.20" y="131.00" xlink:href="#r2"/>
<use x="433.00" y="113.00" xlink:href="#hl"/>
<use x="433.00" y="113.00" xlink:href="#hd"/>
<path d="M429.50 113.00v21.00" class="stroke"/>
<use x="452.20" y="113.00" xlink:href="#hl"/>
<use x="452.20" y="113.00" xlink:href="#hd"/>
<path d="M448.70 113.00v21.00" class="stroke"/>
<use x="502.70" y="131.00" xlink:href="#r1"/>
<use x="585.10" y="131.00" xlink:href="#r1"/>
<use x="645.70" y="113.00" xlink:href="#hl"/>
<use x="645.70" y="113.00" xlink:href="#Hd"/>
<path d="M642.20 113.00v21.00" class="stroke"/>
<use x="671.90" y="113.00" xlink:href="#hl"/>
<use x="671.90" y="113.00" xlink:href="#Hd"/>
<path d="M668.40 113.00v21.00" class="stroke"/>
</g>
<g stroke-width="0.70" style="font:20.00px Times">
<path class="stroke" stroke-width="1"
	d="M10.00 271.00v-82.00"/>
<path class="stroke" stroke-width="1"
	d="M104.60 213.00v-24.00"/>
<path class="stroke" stroke-width="1"
	d="M104.60 271.00v-58.00"/>
<path class="stroke" stroke-width="1"
	d="M190.50 213.00v-24.00"/>
<path class="stroke" stroke-width="1"
	d="M190.50 271.00v-58.00"/>
<path class="stroke" stroke-width="1"
	d="M261.10 213.00v-24.00"/>
<path class="stroke" stroke-width="1"
	d="M261.10 271.00v-58.00"/>
<path class="stroke" stroke-width="1"
	d="M347.10 213.00v-24.00"/>
<path class="stroke" stroke-width="1"
	d="M347.10 271.00v-58.00"/>
<path class="stroke" stroke-width="1"
	d="M417.60 213.00v-24.00"/>
<path class="stroke" stroke-width="1"
	d="M417.60 271.00v-58.00"/>
<path class="stroke" stroke-width="1"
	d="M503.60 213.00v-24.00"/>
<path class="stroke" stroke-width="1"
	d="M503.60 271.00v-58.00"/>
<path class="stroke" stroke-width="1"
	d="M615.70 213.00v-24.00"/>
<path class="stroke" stroke-width="1"
	d="M615.70 271.00v-58.00"/>
<path class="stroke" stroke-width="3"
	d="M690.10 213.00v-24.00"/>
<path class="stroke" stroke-width="1"
	d="M685.60 213.00v-24.00"/>
<use x="681.60" y="213.00" xlink:href="#rdots"/>
<path class="stroke" stroke-width="3"
	d="M690.10 271.00v-58.00"/>
<path class="stroke" stroke-width="1"
	d="M685.60 271.00v-58.00"/>
<use x="681.60" y="271.00" xlink:href="#rdots"/>
<path d="m10.00 213.00
	h681.60
	M10.00 207.00
	h681.60
	M10.00 201.00
	h681.60
	M10.00 195.00
	h681.60
	M10.00 189.00
	h681.60
	" class="stroke"/>
<path d="m10.00 271.00
	h681.60
	M10.00 265.00
	h681.60
	M10.00 259.00
	h681.60
	M10.00 253.00
	h681.60
	M10.00 247.00
	h681.60
	" class="stroke"/>
<use x="22.00" y="207.00" xlink:href="#tclef"/>
<use x="47.00" y="213.00" xlink:href="#Hd"/>
<path d="M50.50 213.00v-21.00" class="stroke"/>
<use x="80.40" y="201.00" xlink:href="#r2"/>
<use x="118.60" y="213.00" xlink:href="#hd"/>
<path d="M122.10 213.00v-21.00" class="stroke"/>
<use x="142.40" y="213.00" xlink:href="#hd"/>
<path d="M145.90 213.00v-21.00" class="stroke"/>
<use x="166.40" y="207.00" xlink:href="#Hd"/>
<path d="M169.90 207.00v-21.00" class="stroke"/>
<use x="203.50" y="216.00" xlink:href="#Hd"/>
<path d="M207.00 216.00v-21.00" class="stroke"/>
<use x="237.00" y="201.00" xlink:href="#r2"/>
<use x="275.10" y="216.00" xlink:href="#hd"/>
<path d="M278.60 216.00v-21.00" class="stroke"/>
<use x="299.00" y="216.00" xlink:href="#hd"/>
<path d="M302.50 216.00v-21.00" class="stroke"/>
<use x="322.90" y="210.00" xlink:href="#Hd"/>
<path d="M326.40 210.00v-21.00" class="stroke"/>
<use x="360.10" y="213.00" xlink:href="#Hd"/>
<path d="M363.60 213.00v-21.00" class="stroke"/>
<use x="393.50" y="201.00" xlink:href="#r2"/>
<use x="431.60" y="213.00" xlink:href="#hd"/>
<path d="M435.10 213.00v-21.00" class="stroke"/>
<use x="455.50" y="213.00" xlink:href="#hd"/>
<path d="M459.00 213.00v-21.00" class="stroke"/>
<use x="479.40" y="207.00" xlink:href="#Hd"/>
<path d="M482.90 207.00v-21.00" class="stroke"/>
<use x="517.60" y="216.00" xlink:href="#hd"/>
<path d="M521.10 216.00v-21.00" class="stroke"/>
<path class="fill"
	d="M544.60 191.60l16.30 -2.30v3.20l-16.30 2.30"/>
<use x="541.50" y="213.00" xlink:href="#hd"/>
<path d="M545.00 213.00v-20.40" class="stroke"/>
<use x="557.10" y="210.00" xlink:href="#hd"/>
<path d="M560.60 210.00v-19.60" class="stroke"/>
<use x="574.30" y="213.00" xlink:href="#hd"/>
<path d="M577.80 213.00v-21.00" class="stroke"/>
<use x="598.20" y="216.00" xlink:href="#hd"/>
<path d="M601.70 216.00v-21.00" class="stroke"/>
<use x="653.60" y="201.00" xlink:href="#r1"/>
<use x="22.00" y="253.00" xlink:href="#bclef"/>
<use x="47.00" y="259.00" xlink:href="#r2"/>
<use x="80.40" y="241.00" xlink:href="#hl"/>
<use x="80.40" y="241.00" xlink:href="#Hd"/>
<path d="M76.90 241.00v21.00" class="stroke"/>
<use x="147.60" y="259.00" xlink:href="#r1"/>
<use x="203.50" y="259.00" xlink:href="#r2"/>
<use x="237.00" y="244.00" xlink:href="#Hd"/>
<path d="M233.50 244.00v21.00" class="stroke"/>
<use x="304.10" y="259.00" xlink:href="#r1"/>
<use x="360.10" y="259.00" xlink:href="#r2"/>
<use x="393.50" y="241.00" xlink:href="#hl"/>
<use x="393.50" y="241.00" xlink:href="#Hd"/>
<path d="M390.00 241.00v21.00" class="stroke"/>
<use x="460.60" y="259.00" xlink:href="#r1"/>
<use x="559.60" y="259.00" xlink:href="#r1"/>
<use x="629.70" y="241.00" xlink:href="#hl"/>
<use x="629.70" y="241.00" xlink:href="#Hd"/>
<path d="M626.20 241.00v21.00" class="stroke"/>
<use x="663.20" y="241.00" xlink:href="#hl"/>
<use x="663.20" y="241.00" xlink:href="#Hd"/>
<path d="M659.70 241.00v21.00" class="stroke"/>
</g>
</svg>
