<?xml version="1.0" standalone="no"?>
<!DOCTYPE svg PUBLIC "-//W3C//DTD SVG 1.1//EN"
	"http://www.w3.org/Graphics/SVG/1.1/DTD/svg11.dtd">
<svg xmlns="http://www.w3.org/2000/svg" version="1.1"
	xmlns:xlink="http://www.w3.org/1999/xlink"
	color="black"
	width="701.60px" height="294.00px">
<style type="text/css">
.fill {fill: currentColor}
.stroke {stroke: currentColor; fill: none}
text{white-space: pre}
</style>
<title>BoosterMusic/04-FrereJacques.abc (1) tune 1</title>
<!-- Creator: abcm2ps-8.14.6 -->
<!-- CreationDate: Dec  6, 2020 19:00 -->
<!-- CommandLine: -i -g BoosterMusic/04-FrereJacques.abc -O build/MusicWeb/BoosterMusic/04-FrereJacques.svg -->
<g stroke-width="0.70">
<!-- title: Frere Jacques -->
</g>
<g stroke-width="0.70" font-family="Times" font-size="20.00px" >
<text x="350.80" y="22.00" text-anchor="middle">Frere Jacques</text>
</g>
<g stroke-width="0.70" font-family="Times" font-size="20.00px" >
<path class="stroke" stroke-width="1"
	d="M10.00 143.00v-82.00"/>
<defs>
<g id="rdots" class="fill">
	<circle cx="0" cy="-9" r="1.2"/>
	<circle cx="0" cy="-15" r="1.2"/>
</g>
</defs>
<use x="69.00" y="85.00" xlink:href="#rdots"/>
<path class="stroke" stroke-width="1"
	d="M65.00 85.00v-24.00"/>
<path class="stroke" stroke-width="3"
	d="M60.50 85.00v-24.00"/>
<use x="69.00" y="143.00" xlink:href="#rdots"/>
<path class="stroke" stroke-width="1"
	d="M65.00 143.00v-58.00"/>
<path class="stroke" stroke-width="3"
	d="M60.50 143.00v-58.00"/>
<path class="stroke" stroke-width="1"
	d="M240.30 85.00v-24.00"/>
<path class="stroke" stroke-width="1"
	d="M240.30 143.00v-58.00"/>
<path class="stroke" stroke-width="1"
	d="M410.60 85.00v-24.00"/>
<path class="stroke" stroke-width="1"
	d="M410.60 143.00v-58.00"/>
<path class="stroke" stroke-width="1"
	d="M551.10 85.00v-24.00"/>
<path class="stroke" stroke-width="1"
	d="M551.10 143.00v-58.00"/>
<path class="stroke" stroke-width="1"
	d="M691.60 85.00v-24.00"/>
<path class="stroke" stroke-width="1"
	d="M691.60 143.00v-58.00"/>
<path d="m10.00 85.00
	h681.60
	M10.00 79.00
	h681.60
	M10.00 73.00
	h681.60
	M10.00 67.00
	h681.60
	M10.00 61.00
	h681.60
	" class="stroke"/>
<path d="m10.00 143.00
	h681.60
	M10.00 137.00
	h681.60
	M10.00 131.00
	h681.60
	M10.00 125.00
	h681.60
	M10.00 119.00
	h681.60
	" class="stroke"/>
<defs>
<path id="utclef" class="fill" d="m-50 -90
	c-72 -41 -72 -158 52 -188
	150 -10 220 188 90 256
	-114 52 -275 0 -293 -136
	-15 -181 93 -229 220 -334
	88 -87 79 -133 62 -210
	-51 33 -94 105 -89 186
	17 267 36 374 49 574
	6 96 -19 134 -77 135
	-80 1 -126 -93 -61 -133
	85 -41 133 101 31 105
	23 17 92 37 90 -92
	-10 -223 -39 -342 -50 -617
	0 -90 0 -162 96 -232
	56 72 63 230 22 289
	-74 106 -257 168 -255 316
	9 153 148 185 252 133
	86 -65 29 -192 -80 -176
	-71 12 -105 67 -59 124"/>
<use id="tclef" transform="translate(0,6) scale(0.045)"
	xlink:href="#utclef"/>
</defs>
<use x="22.00" y="79.00" xlink:href="#tclef"/>
<g font-weight="bold" font-family="serif" font-size="16px" 
	transform="translate(40.50,84.50) scale(1.2,1)">
	<text text-anchor="middle">4</text>
	<text y="-12" text-anchor="middle">4</text>
</g>
<defs>
<path id="hl" class="stroke" d="m-6 0h12"/>
</defs>
<use x="84.90" y="91.00" xlink:href="#hl"/>
<defs>
<ellipse id="hd" rx="4.1" ry="2.9"
	transform="rotate(-20)" class="fill"/>
</defs>
<use x="84.90" y="91.00" xlink:href="#hd"/>
<path d="M88.40 91.00v-21.00" class="stroke"/>
<use x="126.90" y="88.00" xlink:href="#hd"/>
<path d="M130.40 88.00v-21.00" class="stroke"/>
<use x="168.90" y="85.00" xlink:href="#hd"/>
<path d="M172.40 85.00v-21.00" class="stroke"/>
<use x="210.90" y="91.00" xlink:href="#hl"/>
<use x="210.90" y="91.00" xlink:href="#hd"/>
<path d="M214.40 91.00v-21.00" class="stroke"/>
<use x="255.20" y="91.00" xlink:href="#hl"/>
<use x="255.20" y="91.00" xlink:href="#hd"/>
<path d="M258.70 91.00v-21.00" class="stroke"/>
<use x="297.20" y="88.00" xlink:href="#hd"/>
<path d="M300.70 88.00v-21.00" class="stroke"/>
<use x="339.20" y="85.00" xlink:href="#hd"/>
<path d="M342.70 85.00v-21.00" class="stroke"/>
<use x="381.20" y="91.00" xlink:href="#hl"/>
<use x="381.20" y="91.00" xlink:href="#hd"/>
<path d="M384.70 91.00v-21.00" class="stroke"/>
<use x="425.50" y="85.00" xlink:href="#hd"/>
<path d="M429.00 85.00v-21.00" class="stroke"/>
<use x="467.50" y="82.00" xlink:href="#hd"/>
<path d="M471.00 82.00v-21.00" class="stroke"/>
<defs>
<path id="Hd" class="fill" d="m3 -1.6
	c-1 -1.8 -7 1.4 -6 3.2
	1 1.8 7 -1.4 6 -3.2
	m0.5 -0.3
	c2 3.8 -5 7.6 -7 3.8
	-2 -3.8 5 -7.6 7 -3.8"/>
</defs>
<use x="509.50" y="79.00" xlink:href="#Hd"/>
<path d="M513.00 79.00v-21.00" class="stroke"/>
<use x="566.00" y="85.00" xlink:href="#hd"/>
<path d="M569.50 85.00v-21.00" class="stroke"/>
<use x="608.00" y="82.00" xlink:href="#hd"/>
<path d="M611.50 82.00v-21.00" class="stroke"/>
<use x="650.00" y="79.00" xlink:href="#Hd"/>
<path d="M653.50 79.00v-21.00" class="stroke"/>
<defs>
<path id="ubclef" class="fill" d="m-200 -87
	c124 -35 222 -78 254 -236
	43 -228 -167 -246 -192 -103
	59 -80 157 22 92 78
	-62 47 -115 -22 -106 -88
	21 -141 270 -136 274 52
	-1 175 -106 264 -322 297
	m357 -250
	c0 -36 51 -34 51 0
	0 37 -51 36 -51 0
	m-2 -129
	c0 -36 51 -34 51 0
	0 38 -51 37 -51 0"/>
<use id="bclef" transform="translate(0,18) scale(0.045)"
	xlink:href="#ubclef"/>
</defs>
<use x="22.00" y="125.00" xlink:href="#bclef"/>
<g font-weight="bold" font-family="serif" font-size="16px" 
	transform="translate(40.50,142.50) scale(1.2,1)">
	<text text-anchor="middle">4</text>
	<text y="-12" text-anchor="middle">4</text>
</g>
<defs>
<path id="HD" class="fill" d="m-2.7 -1.4
	c1.5 -2.8 6.9 0 5.3 2.7
	-1.5 2.8 -6.9 0 -5.3 -2.7
	m8.3 1.4
	c0 -1.5 -2.2 -3 -5.6 -3
	-3.4 0 -5.6 1.5 -5.6 3
	0 1.5 2.2 3 5.6 3
	3.4 0 5.6 -1.5 5.6 -3"/>
</defs>
<use x="85.90" y="128.00" xlink:href="#HD"/>
<use x="256.20" y="128.00" xlink:href="#HD"/>
<use x="426.50" y="134.00" xlink:href="#HD"/>
<use x="567.00" y="134.00" xlink:href="#HD"/>
</g>
<g stroke-width="0.70" font-family="Times" font-size="20.00px" >
<path class="stroke" stroke-width="1"
	d="M10.00 271.00v-82.00"/>
<path class="stroke" stroke-width="1"
	d="M225.90 213.00v-24.00"/>
<path class="stroke" stroke-width="1"
	d="M225.90 271.00v-58.00"/>
<path class="stroke" stroke-width="1"
	d="M418.40 213.00v-24.00"/>
<path class="stroke" stroke-width="1"
	d="M418.40 271.00v-58.00"/>
<path class="stroke" stroke-width="1"
	d="M552.10 213.00v-24.00"/>
<path class="stroke" stroke-width="1"
	d="M552.10 271.00v-58.00"/>
<path class="stroke" stroke-width="3"
	d="M690.10 213.00v-24.00"/>
<path class="stroke" stroke-width="1"
	d="M685.60 213.00v-24.00"/>
<use x="681.60" y="213.00" xlink:href="#rdots"/>
<path class="stroke" stroke-width="3"
	d="M690.10 271.00v-58.00"/>
<path class="stroke" stroke-width="1"
	d="M685.60 271.00v-58.00"/>
<use x="681.60" y="271.00" xlink:href="#rdots"/>
<path d="m10.00 213.00
	h681.60
	M10.00 207.00
	h681.60
	M10.00 201.00
	h681.60
	M10.00 195.00
	h681.60
	M10.00 189.00
	h681.60
	" class="stroke"/>
<path d="m10.00 271.00
	h681.60
	M10.00 265.00
	h681.60
	M10.00 259.00
	h681.60
	M10.00 253.00
	h681.60
	M10.00 247.00
	h681.60
	" class="stroke"/>
<use x="22.00" y="207.00" xlink:href="#tclef"/>
<path class="fill"
	d="M51.20 186.00l79.40 0.00v3.20l-79.40 -0.00"/>
<use x="48.00" y="207.00" xlink:href="#hd"/>
<path d="M51.50 207.00v-20.00" class="stroke"/>
<use x="74.20" y="204.00" xlink:href="#hd"/>
<path d="M77.70 204.00v-17.00" class="stroke"/>
<use x="100.50" y="207.00" xlink:href="#hd"/>
<path d="M104.00 207.00v-20.00" class="stroke"/>
<use x="126.70" y="210.00" xlink:href="#hd"/>
<path d="M130.20 210.00v-23.00" class="stroke"/>
<use x="155.90" y="213.00" xlink:href="#hd"/>
<path d="M159.40 213.00v-21.00" class="stroke"/>
<use x="197.10" y="219.00" xlink:href="#hl"/>
<use x="197.10" y="219.00" xlink:href="#hd"/>
<path d="M200.60 219.00v-21.00" class="stroke"/>
<path class="fill"
	d="M243.70 186.00l79.40 0.00v3.20l-79.40 -0.00"/>
<use x="240.50" y="207.00" xlink:href="#hd"/>
<path d="M244.00 207.00v-20.00" class="stroke"/>
<use x="266.70" y="204.00" xlink:href="#hd"/>
<path d="M270.20 204.00v-17.00" class="stroke"/>
<use x="293.00" y="207.00" xlink:href="#hd"/>
<path d="M296.50 207.00v-20.00" class="stroke"/>
<use x="319.20" y="210.00" xlink:href="#hd"/>
<path d="M322.70 210.00v-23.00" class="stroke"/>
<use x="348.40" y="213.00" xlink:href="#hd"/>
<path d="M351.90 213.00v-21.00" class="stroke"/>
<use x="389.60" y="219.00" xlink:href="#hl"/>
<use x="389.60" y="219.00" xlink:href="#hd"/>
<path d="M393.10 219.00v-21.00" class="stroke"/>
<use x="433.00" y="219.00" xlink:href="#hl"/>
<use x="433.00" y="219.00" xlink:href="#hd"/>
<path d="M436.50 219.00v-21.00" class="stroke"/>
<defs>
<path id="r4" class="fill" d="m-1 -8.5
	l3.6 5.1 -2.1 5.2 2.2 4.3
	c-2.6 -2.3 -5.1 0 -2.4 2.6
	-4.8 -3 -1.5 -6.9 1.4 -4.1
	l-3.1 -4.5 1.9 -5.1 -1.5 -3.5"/>
</defs>
<use x="474.20" y="201.00" xlink:href="#r4"/>
<use x="511.30" y="219.00" xlink:href="#hl"/>
<use x="511.30" y="219.00" xlink:href="#Hd"/>
<path d="M514.80 219.00v-21.00" class="stroke"/>
<use x="566.70" y="219.00" xlink:href="#hl"/>
<use x="566.70" y="219.00" xlink:href="#hd"/>
<path d="M570.20 219.00v-21.00" class="stroke"/>
<use x="607.90" y="201.00" xlink:href="#r4"/>
<use x="645.00" y="219.00" xlink:href="#hl"/>
<use x="645.00" y="219.00" xlink:href="#Hd"/>
<path d="M648.50 219.00v-21.00" class="stroke"/>
<use x="22.00" y="253.00" xlink:href="#bclef"/>
<use x="49.00" y="256.00" xlink:href="#HD"/>
<use x="241.50" y="256.00" xlink:href="#HD"/>
<use x="433.00" y="259.00" xlink:href="#r4"/>
<use x="474.20" y="250.00" xlink:href="#hd"/>
<path d="M470.70 250.00v21.00" class="stroke"/>
<defs>
<rect id="r2" class="fill"
	x="-3.5" y="-3" width="7" height="3"/>
</defs>
<use x="511.30" y="259.00" xlink:href="#r2"/>
<use x="566.70" y="259.00" xlink:href="#r4"/>
<use x="607.90" y="250.00" xlink:href="#hd"/>
<path d="M604.40 250.00v21.00" class="stroke"/>
<use x="645.00" y="259.00" xlink:href="#r2"/>
</g>
</svg>
