<?xml version="1.0" standalone="no"?>
<!DOCTYPE svg PUBLIC "-//W3C//DTD SVG 1.1//EN"
	"http://www.w3.org/Graphics/SVG/1.1/DTD/svg11.dtd">
<svg xmlns="http://www.w3.org/2000/svg" version="1.1"
	xmlns:xlink="http://www.w3.org/1999/xlink"
	color="black"
	width="701.60px" height="430.00px">
<style type="text/css">
.fill {fill: currentColor}
.stroke {stroke: currentColor; fill: none}
text{white-space: pre}
</style>
<title>BoosterMusic/05-ScarboroughFair.abc (1) tune 1</title>
<!-- Creator: abcm2ps-8.14.6 -->
<!-- CreationDate: Dec  6, 2020 19:00 -->
<!-- CommandLine: -i -g BoosterMusic/05-ScarboroughFair.abc -O build/MusicWeb/BoosterMusic/05-ScarboroughFair.svg -->
<g stroke-width="0.70">
<!-- title: Scarborough Fair -->
</g>
<g stroke-width="0.70" style="font:20.00px Times">
<text x="350.80" y="22.00" text-anchor="middle">Scarborough Fair</text>
</g>
<g stroke-width="0.70" transform="scale(0.700)" style="font:20.00px Times">
<defs>
<ellipse id="hd" rx="4.1" ry="2.9"
	transform="rotate(-20)" class="fill"/>
</defs>
<use x="100.86" y="75.57" xlink:href="#hd"/>
<path d="M104.36 75.57v-21.00" class="stroke"/>
</g>
<g stroke-width="0.70" style="font:bold 15.00px Times">
<text x="78.30" y="55.00">= 30</text>
<path class="stroke" stroke-width="1"
	d="M10.00 151.00v-82.00"/>
<defs>
<g id="rdots" class="fill">
	<circle cx="0" cy="-9" r="1.2"/>
	<circle cx="0" cy="-15" r="1.2"/>
</g>
</defs>
<use x="69.00" y="93.00" xlink:href="#rdots"/>
<path class="stroke" stroke-width="1"
	d="M65.00 93.00v-24.00"/>
<path class="stroke" stroke-width="3"
	d="M60.50 93.00v-24.00"/>
<use x="69.00" y="151.00" xlink:href="#rdots"/>
<path class="stroke" stroke-width="1"
	d="M65.00 151.00v-58.00"/>
<path class="stroke" stroke-width="3"
	d="M60.50 151.00v-58.00"/>
<path class="stroke" stroke-width="1"
	d="M155.60 93.00v-24.00"/>
<path class="stroke" stroke-width="1"
	d="M155.60 151.00v-58.00"/>
<path class="stroke" stroke-width="1"
	d="M241.20 93.00v-24.00"/>
<path class="stroke" stroke-width="1"
	d="M241.20 151.00v-58.00"/>
<path class="stroke" stroke-width="1"
	d="M342.20 93.00v-24.00"/>
<path class="stroke" stroke-width="1"
	d="M342.20 151.00v-58.00"/>
<path class="stroke" stroke-width="1"
	d="M394.80 93.00v-24.00"/>
<path class="stroke" stroke-width="1"
	d="M394.80 151.00v-58.00"/>
<path class="stroke" stroke-width="1"
	d="M500.50 93.00v-24.00"/>
<path class="stroke" stroke-width="1"
	d="M500.50 151.00v-58.00"/>
<path class="stroke" stroke-width="1"
	d="M586.10 93.00v-24.00"/>
<path class="stroke" stroke-width="1"
	d="M586.10 151.00v-58.00"/>
<path class="stroke" stroke-width="1"
	d="M691.60 93.00v-24.00"/>
<path class="stroke" stroke-width="1"
	d="M691.60 151.00v-58.00"/>
<path d="m10.00 93.00
	h681.60
	M10.00 87.00
	h681.60
	M10.00 81.00
	h681.60
	M10.00 75.00
	h681.60
	M10.00 69.00
	h681.60
	" class="stroke"/>
<path d="m10.00 151.00
	h681.60
	M10.00 145.00
	h681.60
	M10.00 139.00
	h681.60
	M10.00 133.00
	h681.60
	M10.00 127.00
	h681.60
	" class="stroke"/>
<defs>
<path id="utclef" class="fill" d="m-50 -90
	c-72 -41 -72 -158 52 -188
	150 -10 220 188 90 256
	-114 52 -275 0 -293 -136
	-15 -181 93 -229 220 -334
	88 -87 79 -133 62 -210
	-51 33 -94 105 -89 186
	17 267 36 374 49 574
	6 96 -19 134 -77 135
	-80 1 -126 -93 -61 -133
	85 -41 133 101 31 105
	23 17 92 37 90 -92
	-10 -223 -39 -342 -50 -617
	0 -90 0 -162 96 -232
	56 72 63 230 22 289
	-74 106 -257 168 -255 316
	9 153 148 185 252 133
	86 -65 29 -192 -80 -176
	-71 12 -105 67 -59 124"/>
<use id="tclef" transform="translate(0,6) scale(0.045)"
	xlink:href="#utclef"/>
</defs>
<use x="22.00" y="87.00" xlink:href="#tclef"/>
<g style="font:bold 16px serif"
	transform="translate(40.50,92.50) scale(1.2,1)">
	<text text-anchor="middle">4</text>
	<text y="-12" text-anchor="middle">3</text>
</g>
<defs>
<path id="Hd" class="fill" d="m3 -1.6
	c-1 -1.8 -7 1.4 -6 3.2
	1 1.8 7 -1.4 6 -3.2
	m0.5 -0.3
	c2 3.8 -5 7.6 -7 3.8
	-2 -3.8 5 -7.6 7 -3.8"/>
</defs>
<use x="84.00" y="96.00" xlink:href="#Hd"/>
<path d="M87.50 96.00v-21.00" class="stroke"/>
<use x="131.60" y="96.00" xlink:href="#hd"/>
<path d="M135.10 96.00v-21.00" class="stroke"/>
<use x="169.60" y="84.00" xlink:href="#Hd"/>
<path d="M173.10 84.00v-21.00" class="stroke"/>
<use x="217.20" y="84.00" xlink:href="#hd"/>
<path d="M220.70 84.00v-21.00" class="stroke"/>
<use x="255.20" y="93.00" xlink:href="#hd"/>
<circle class="fill" cx="262.90" cy="90.00" r="1.2"/>
<path d="M258.70 93.00v-21.00" class="stroke"/>
<use x="294.00" y="90.00" xlink:href="#hd"/>
<path d="M297.50 90.00v-21.00" class="stroke"/>
<path class="fill"
	d="M297.50 69.00c0.6 5.6 9.6 9 5.6 18.4
	1.6 -6 -1.3 -11.6 -5.6 -12.8
"/>
<use x="318.20" y="93.00" xlink:href="#hd"/>
<path d="M321.70 93.00v-21.00" class="stroke"/>
<use x="356.20" y="96.00" xlink:href="#Hd"/>
<circle class="fill" cx="364.90" cy="96.00" r="1.2"/>
<path d="M359.70 96.00v-21.00" class="stroke"/>
<defs>
<path id="r4" class="fill" d="m-1 -8.5
	l3.6 5.1 -2.1 5.2 2.2 4.3
	c-2.6 -2.3 -5.1 0 -2.4 2.6
	-4.8 -3 -1.5 -6.9 1.4 -4.1
	l-3.1 -4.5 1.9 -5.1 -1.5 -3.5"/>
</defs>
<use x="408.80" y="81.00" xlink:href="#r4"/>
<use x="442.60" y="84.00" xlink:href="#hd"/>
<path d="M446.10 84.00v-21.00" class="stroke"/>
<use x="476.50" y="78.00" xlink:href="#hd"/>
<path d="M473.00 78.00v21.00" class="stroke"/>
<use x="514.50" y="75.00" xlink:href="#Hd"/>
<path d="M511.00 75.00v21.00" class="stroke"/>
<use x="562.10" y="78.00" xlink:href="#hd"/>
<path d="M558.60 78.00v21.00" class="stroke"/>
<use x="600.10" y="84.00" xlink:href="#hd"/>
<path d="M603.60 84.00v-21.00" class="stroke"/>
<use x="633.90" y="81.00" xlink:href="#hd"/>
<path d="M637.40 81.00v-21.00" class="stroke"/>
<use x="667.60" y="87.00" xlink:href="#hd"/>
<path d="M671.10 87.00v-21.00" class="stroke"/>
<defs>
<path id="ubclef" class="fill" d="m-200 -87
	c124 -35 222 -78 254 -236
	43 -228 -167 -246 -192 -103
	59 -80 157 22 92 78
	-62 47 -115 -22 -106 -88
	21 -141 270 -136 274 52
	-1 175 -106 264 -322 297
	m357 -250
	c0 -36 51 -34 51 0
	0 37 -51 36 -51 0
	m-2 -129
	c0 -36 51 -34 51 0
	0 38 -51 37 -51 0"/>
<use id="bclef" transform="translate(0,18) scale(0.045)"
	xlink:href="#ubclef"/>
</defs>
<use x="22.00" y="133.00" xlink:href="#bclef"/>
<g style="font:bold 16px serif"
	transform="translate(40.50,150.50) scale(1.2,1)">
	<text text-anchor="middle">4</text>
	<text y="-12" text-anchor="middle">3</text>
</g>
<defs>
<rect id="r1" class="fill"
	x="-3.5" y="-6" width="7" height="3"/>
</defs>
<use x="112.80" y="139.00" xlink:href="#r1"/>
<use x="198.40" y="139.00" xlink:href="#r1"/>
<use x="291.70" y="139.00" xlink:href="#r1"/>
<use x="368.50" y="139.00" xlink:href="#r1"/>
<use x="447.70" y="139.00" xlink:href="#r1"/>
<use x="543.30" y="139.00" xlink:href="#r1"/>
<use x="638.80" y="139.00" xlink:href="#r1"/>
</g>
<g stroke-width="0.70" style="font:bold 15.00px Times">
<path class="stroke" stroke-width="1"
	d="M10.00 279.00v-82.00"/>
<path class="stroke" stroke-width="1"
	d="M107.60 221.00v-24.00"/>
<path class="stroke" stroke-width="1"
	d="M107.60 279.00v-58.00"/>
<path class="stroke" stroke-width="1"
	d="M269.10 221.00v-24.00"/>
<path class="stroke" stroke-width="1"
	d="M269.10 279.00v-58.00"/>
<path class="stroke" stroke-width="1"
	d="M399.60 221.00v-24.00"/>
<path class="stroke" stroke-width="1"
	d="M399.60 279.00v-58.00"/>
<path class="stroke" stroke-width="1"
	d="M530.10 221.00v-24.00"/>
<path class="stroke" stroke-width="1"
	d="M530.10 279.00v-58.00"/>
<path class="stroke" stroke-width="1"
	d="M691.60 221.00v-24.00"/>
<path class="stroke" stroke-width="1"
	d="M691.60 279.00v-58.00"/>
<path d="m10.00 221.00
	h681.60
	M10.00 215.00
	h681.60
	M10.00 209.00
	h681.60
	M10.00 203.00
	h681.60
	M10.00 197.00
	h681.60
	" class="stroke"/>
<path d="m10.00 279.00
	h681.60
	M10.00 273.00
	h681.60
	M10.00 267.00
	h681.60
	M10.00 261.00
	h681.60
	M10.00 255.00
	h681.60
	" class="stroke"/>
<use x="22.00" y="215.00" xlink:href="#tclef"/>
<use x="48.00" y="212.00" xlink:href="#Hd"/>
<circle class="fill" cx="57.70" cy="212.00" r="1.2"/>
<path d="M51.50 212.00v-21.00" class="stroke"/>
<use x="126.30" y="212.00" xlink:href="#hd"/>
<path d="M129.80 212.00v-21.00" class="stroke"/>
<use x="179.20" y="209.00" xlink:href="#r4"/>
<use x="232.00" y="203.00" xlink:href="#hd"/>
<path d="M228.50 203.00v21.00" class="stroke"/>
<use x="287.80" y="203.00" xlink:href="#Hd"/>
<path d="M284.30 203.00v21.00" class="stroke"/>
<use x="362.60" y="203.00" xlink:href="#hd"/>
<path d="M359.10 203.00v21.00" class="stroke"/>
<use x="418.30" y="206.00" xlink:href="#Hd"/>
<path d="M414.80 206.00v21.00" class="stroke"/>
<use x="493.10" y="212.00" xlink:href="#hd"/>
<path d="M496.60 212.00v-21.00" class="stroke"/>
<use x="548.80" y="212.00" xlink:href="#hd"/>
<path d="M552.30 212.00v-21.00" class="stroke"/>
<use x="601.70" y="215.00" xlink:href="#hd"/>
<path d="M605.20 215.00v-21.00" class="stroke"/>
<use x="654.60" y="218.00" xlink:href="#hd"/>
<path d="M658.10 218.00v-21.00" class="stroke"/>
<path class="fill"
	d="M51.50 212.00c10.22 5.78 61.07 5.78 71.30 -0.00
	v0.27c-12.36 7.51 -58.93 7.51 -71.30 -0.27"/>
<use x="22.00" y="261.00" xlink:href="#bclef"/>
<use x="69.80" y="267.00" xlink:href="#r1"/>
<use x="188.30" y="267.00" xlink:href="#r1"/>
<use x="334.30" y="267.00" xlink:href="#r1"/>
<use x="464.90" y="267.00" xlink:href="#r1"/>
<use x="610.90" y="267.00" xlink:href="#r1"/>
</g>
<g stroke-width="0.70" style="font:bold 15.00px Times">
<path class="stroke" stroke-width="1"
	d="M10.00 407.00v-82.00"/>
<path class="stroke" stroke-width="1"
	d="M148.70 349.00v-24.00"/>
<path class="stroke" stroke-width="1"
	d="M148.70 407.00v-58.00"/>
<path class="stroke" stroke-width="1"
	d="M212.50 349.00v-24.00"/>
<path class="stroke" stroke-width="1"
	d="M212.50 407.00v-58.00"/>
<path class="stroke" stroke-width="1"
	d="M318.90 349.00v-24.00"/>
<path class="stroke" stroke-width="1"
	d="M318.90 407.00v-58.00"/>
<path class="stroke" stroke-width="1"
	d="M425.30 349.00v-24.00"/>
<path class="stroke" stroke-width="1"
	d="M425.30 407.00v-58.00"/>
<path class="stroke" stroke-width="1"
	d="M557.00 349.00v-24.00"/>
<path class="stroke" stroke-width="1"
	d="M557.00 407.00v-58.00"/>
<path class="stroke" stroke-width="1"
	d="M620.80 349.00v-24.00"/>
<path class="stroke" stroke-width="1"
	d="M620.80 407.00v-58.00"/>
<path class="stroke" stroke-width="3"
	d="M690.10 349.00v-24.00"/>
<path class="stroke" stroke-width="1"
	d="M685.60 349.00v-24.00"/>
<use x="681.60" y="349.00" xlink:href="#rdots"/>
<path class="stroke" stroke-width="3"
	d="M690.10 407.00v-58.00"/>
<path class="stroke" stroke-width="1"
	d="M685.60 407.00v-58.00"/>
<use x="681.60" y="407.00" xlink:href="#rdots"/>
<path d="m10.00 349.00
	h681.60
	M10.00 343.00
	h681.60
	M10.00 337.00
	h681.60
	M10.00 331.00
	h681.60
	M10.00 325.00
	h681.60
	" class="stroke"/>
<path d="m10.00 407.00
	h681.60
	M10.00 401.00
	h681.60
	M10.00 395.00
	h681.60
	M10.00 389.00
	h681.60
	M10.00 383.00
	h681.60
	" class="stroke"/>
<use x="22.00" y="343.00" xlink:href="#tclef"/>
<path class="fill"
	d="M51.20 328.90l28.10 4.30v3.20l-28.10 -4.30"/>
<use x="48.00" y="349.00" xlink:href="#hd"/>
<path d="M51.50 349.00v-19.10" class="stroke"/>
<defs>
<path id="hl" class="stroke" d="m-6 0h12"/>
</defs>
<use x="75.50" y="355.00" xlink:href="#hl"/>
<use x="75.50" y="355.00" xlink:href="#hd"/>
<path d="M79.00 355.00v-20.90" class="stroke"/>
<use x="106.00" y="355.00" xlink:href="#hl"/>
<use x="106.00" y="355.00" xlink:href="#Hd"/>
<path d="M109.50 355.00v-21.00" class="stroke"/>
<use x="163.90" y="355.00" xlink:href="#hl"/>
<use x="163.90" y="355.00" xlink:href="#Hd"/>
<circle class="fill" cx="172.60" cy="352.00" r="1.2"/>
<path d="M167.40 355.00v-21.00" class="stroke"/>
<use x="227.70" y="352.00" xlink:href="#Hd"/>
<path d="M231.20 352.00v-21.00" class="stroke"/>
<use x="288.70" y="340.00" xlink:href="#hd"/>
<path d="M292.20 340.00v-21.00" class="stroke"/>
<use x="334.20" y="343.00" xlink:href="#Hd"/>
<path d="M337.70 343.00v-21.00" class="stroke"/>
<use x="395.20" y="346.00" xlink:href="#hd"/>
<path d="M398.70 346.00v-21.00" class="stroke"/>
<use x="440.60" y="349.00" xlink:href="#hd"/>
<path d="M444.10 349.00v-21.00" class="stroke"/>
<use x="483.70" y="352.00" xlink:href="#hd"/>
<path d="M487.20 352.00v-21.00" class="stroke"/>
<use x="526.80" y="355.00" xlink:href="#hl"/>
<use x="526.80" y="355.00" xlink:href="#hd"/>
<path d="M530.30 355.00v-21.00" class="stroke"/>
<use x="572.20" y="352.00" xlink:href="#Hd"/>
<circle class="fill" cx="580.90" cy="352.00" r="1.2"/>
<path d="M575.70 352.00v-21.00" class="stroke"/>
<use x="636.10" y="352.00" xlink:href="#Hd"/>
<circle class="fill" cx="644.80" cy="352.00" r="1.2"/>
<path d="M639.60 352.00v-21.00" class="stroke"/>
<path class="fill"
	d="M79.00 355.00c3.70 4.92 19.80 4.92 23.50 -0.00
	v0.22c-4.41 6.70 -19.09 6.70 -23.50 -0.22"/>
<path class="fill"
	d="M109.50 355.00c7.77 5.42 43.18 5.42 50.95 -0.00
	v0.25c-9.30 7.17 -41.65 7.17 -50.95 -0.25"/>
<path class="fill"
	d="M575.70 352.00c8.52 5.52 48.31 5.52 56.84 -0.00
	v0.26c-10.23 7.27 -46.61 7.27 -56.84 -0.26"/>
<use x="22.00" y="389.00" xlink:href="#bclef"/>
<use x="90.30" y="395.00" xlink:href="#r1"/>
<use x="180.60" y="395.00" xlink:href="#r1"/>
<use x="265.70" y="395.00" xlink:href="#r1"/>
<use x="372.10" y="395.00" xlink:href="#r1"/>
<use x="491.20" y="395.00" xlink:href="#r1"/>
<use x="588.90" y="395.00" xlink:href="#r1"/>
<use x="656.20" y="395.00" xlink:href="#r1"/>
</g>
</svg>
