<?xml version="1.0" standalone="no"?>
<!DOCTYPE svg PUBLIC "-//W3C//DTD SVG 1.1//EN"
	"http://www.w3.org/Graphics/SVG/1.1/DTD/svg11.dtd">
<svg xmlns="http://www.w3.org/2000/svg" version="1.1"
	xmlns:xlink="http://www.w3.org/1999/xlink"
	color="black"
	width="701.60px" height="627.20px">
<style type="text/css">
.fill {fill: currentColor}
.stroke {stroke: currentColor; fill: none}
text{white-space: pre}
</style>
<title>BoosterMusic/07-AmazingGracePs.abc (1) tune 1</title>
<!-- Creator: abcm2ps-8.14.6 -->
<!-- CreationDate: Dec  6, 2020 19:00 -->
<!-- CommandLine: -i -g BoosterMusic/07-AmazingGracePs.abc -O build/MusicWeb/BoosterMusic/07-AmazingGrace.svg -->
<g stroke-width="0.70">
<!-- title: Amazing Grace -->
</g>
<g stroke-width="0.70" font-family="Times" font-size="20.00px" >
<text x="350.80" y="22.00" text-anchor="middle">Amazing Grace</text>
</g>
<g stroke-width="0.70" font-style="italic" font-family="Times" font-size="14.00px" >
<text x="691.60" y="46.00" text-anchor="end">Traditional</text>
</g>
<g stroke-width="0.70" font-weight="bold" font-family="Times" font-size="15.00px" >
<text x="67.50" y="69.00">English Waltz  </text>
<path class="stroke" stroke-width="1"
	d="M10.00 169.30v-86.30"/>
<defs>
<path id="brace" class="fill" d="m-2.5 101
	c-4.5 -4.6 -7.5 -12.2 -4.4 -26.8
	3.5 -14.3 3.2 -21.7 -2.1 -24.2
	7.4 2.4 7.3 14.2 3.5 29.5
	-2.7 9.5 -1.5 16.2 3 21.5
	M-2.5 1c-4.5 4.6 -7.5 12.2 -4.4 26.8
	c3.5 14.3 3.2 21.7 -2.1 24.2
	7.4 -2.4 7.3 -14.2 3.5 -29.5
	-2.7 -9.5 -1.5 -16.2 3 -21.5"/>
</defs>
<g transform="translate(10.00,83.00) scale(1,0.86)">
	<use xlink:href="#brace"/>
</g>
<defs>
<g id="rdots" class="fill">
	<circle cx="0" cy="-9" r="1.2"/>
	<circle cx="0" cy="-15" r="1.2"/>
</g>
</defs>
<use x="274.40" y="107.00" xlink:href="#rdots"/>
<path class="stroke" stroke-width="1"
	d="M270.40 107.00v-24.00"/>
<path class="stroke" stroke-width="3"
	d="M265.90 107.00v-24.00"/>
<use x="274.40" y="169.30" xlink:href="#rdots"/>
<path class="stroke" stroke-width="1"
	d="M270.40 169.30v-62.30"/>
<path class="stroke" stroke-width="3"
	d="M265.90 169.30v-62.30"/>
<path class="stroke" stroke-width="1"
	d="M500.20 107.00v-24.00"/>
<path class="stroke" stroke-width="1"
	d="M500.20 169.30v-62.30"/>
<path class="stroke" stroke-width="1"
	d="M691.60 107.00v-24.00"/>
<path class="stroke" stroke-width="1"
	d="M691.60 169.30v-62.30"/>
<path d="m10.00 107.00
	h681.60
	M10.00 101.00
	h681.60
	M10.00 95.00
	h681.60
	M10.00 89.00
	h681.60
	M10.00 83.00
	h681.60
	" class="stroke"/>
<path d="m10.00 169.30
	h681.60
	M10.00 163.30
	h681.60
	M10.00 157.30
	h681.60
	M10.00 151.30
	h681.60
	M10.00 145.30
	h681.60
	" class="stroke"/>
</g>
<g stroke-width="0.70" font-family="Helvetica" font-size="12.00px" >
<text x="299.90" y="74.60">F</text>
</g>
<g stroke-width="0.70" font-weight="bold" font-family="Times" font-size="13.00px" >
<text x="175.50" y="131.10">A</text>
<path class="stroke" stroke-width="0.8"
	d="M188.40 131.10h49.20"/>
<text x="290.70" y="131.10">ma</text>
<path class="stroke" stroke-width="1.2"
	stroke-dasharray="5,32"
	d="M336.30 127.20h42"/>
<text x="400.40" y="131.10">zing</text>
<path class="stroke" stroke-width="0.8"
	d="M426.90 131.10h41.00"/>
<text x="511.70" y="131.10">grace,</text>
<text x="625.20" y="131.10">how</text>
<defs>
<path id="utclef" class="fill" d="m-50 -90
	c-72 -41 -72 -158 52 -188
	150 -10 220 188 90 256
	-114 52 -275 0 -293 -136
	-15 -181 93 -229 220 -334
	88 -87 79 -133 62 -210
	-51 33 -94 105 -89 186
	17 267 36 374 49 574
	6 96 -19 134 -77 135
	-80 1 -126 -93 -61 -133
	85 -41 133 101 31 105
	23 17 92 37 90 -92
	-10 -223 -39 -342 -50 -617
	0 -90 0 -162 96 -232
	56 72 63 230 22 289
	-74 106 -257 168 -255 316
	9 153 148 185 252 133
	86 -65 29 -192 -80 -176
	-71 12 -105 67 -59 124"/>
<use id="tclef" transform="translate(0,6) scale(0.045)"
	xlink:href="#utclef"/>
</defs>
<use x="22.00" y="101.00" xlink:href="#tclef"/>
<defs>
<path id="uflat" class="fill" d="
	m100 -746
	h32
	v734
	l-32 4
	m32 -332
	c46 -72 152 -90 208 -20
	100 110 -120 326 -208 348
	m0 -28
	c54 0 200 -206 130 -290
	-50 -60 -130 -4 -130 34"/>
<use id="ft0" transform="translate(-3.5,3.5) scale(0.018)"
	xlink:href="#uflat"/>
</defs>
<use x="37.00" y="95.00" xlink:href="#ft0"/>
<g font-weight="bold" font-family="serif" font-size="16px" 
	transform="translate(53.00,106.50) scale(1.2,1)">
	<text text-anchor="middle">4</text>
	<text y="-12" text-anchor="middle">3</text>
</g>
<defs>
<rect id="r2" class="fill"
	x="-3.5" y="-3" width="7" height="3"/>
</defs>
<use x="72.50" y="95.00" xlink:href="#r2"/>
<path class="fill"
	d="M185.30 90.80l50.00 -6.70v3.20l-50.00 6.70"/>
<defs>
<path id="hl" class="stroke" d="m-6 0h12"/>
</defs>
<use x="182.20" y="113.00" xlink:href="#hl"/>
<defs>
<ellipse id="hd" rx="4.1" ry="2.9"
	transform="rotate(-20)" class="fill"/>
</defs>
<use x="182.20" y="113.00" xlink:href="#hd"/>
<path d="M185.70 113.00v-21.20" class="stroke"/>
<use x="231.50" y="104.00" xlink:href="#hd"/>
<path d="M235.00 104.00v-18.80" class="stroke"/>
<defs>
<path id="Hd" class="fill" d="m3 -1.6
	c-1 -1.8 -7 1.4 -6 3.2
	1 1.8 7 -1.4 6 -3.2
	m0.5 -0.3
	c2 3.8 -5 7.6 -7 3.8
	-2 -3.8 5 -7.6 7 -3.8"/>
</defs>
<use x="302.80" y="104.00" xlink:href="#Hd"/>
<path d="M306.30 104.00v-21.00" class="stroke"/>
<path class="fill"
	d="M415.70 77.60l50.00 4.90v3.20l-50.00 -4.90"/>
<use x="412.50" y="98.00" xlink:href="#hd"/>
<path d="M416.00 98.00v-19.40" class="stroke"/>
<use x="461.90" y="104.00" xlink:href="#hd"/>
<path d="M465.40 104.00v-20.60" class="stroke"/>
<use x="527.70" y="98.00" xlink:href="#Hd"/>
<path d="M531.20 98.00v-21.00" class="stroke"/>
<use x="637.30" y="101.00" xlink:href="#hd"/>
<path d="M640.80 101.00v-21.00" class="stroke"/>
<defs>
<path id="ubclef" class="fill" d="m-200 -87
	c124 -35 222 -78 254 -236
	43 -228 -167 -246 -192 -103
	59 -80 157 22 92 78
	-62 47 -115 -22 -106 -88
	21 -141 270 -136 274 52
	-1 175 -106 264 -322 297
	m357 -250
	c0 -36 51 -34 51 0
	0 37 -51 36 -51 0
	m-2 -129
	c0 -36 51 -34 51 0
	0 38 -51 37 -51 0"/>
<use id="bclef" transform="translate(0,18) scale(0.045)"
	xlink:href="#ubclef"/>
</defs>
<use x="22.00" y="151.30" xlink:href="#bclef"/>
<use x="37.00" y="163.30" xlink:href="#ft0"/>
<g font-weight="bold" font-family="serif" font-size="16px" 
	transform="translate(53.00,168.80) scale(1.2,1)">
	<text text-anchor="middle">4</text>
	<text y="-12" text-anchor="middle">3</text>
</g>
<defs>
<rect id="r1" class="fill"
	x="-3.5" y="-6" width="7" height="3"/>
</defs>
<use x="164.20" y="157.30" xlink:href="#r1"/>
<use x="302.80" y="172.30" xlink:href="#Hd"/>
<circle class="fill" cx="311.50" cy="172.30" r="1.2"/>
<path d="M306.30 172.30v-21.00" class="stroke"/>
<use x="527.70" y="151.30" xlink:href="#Hd"/>
<circle class="fill" cx="536.40" cy="148.30" r="1.2"/>
<path d="M524.20 151.30v21.00" class="stroke"/>
<text font-size="8px" 
	x="179.20" y="78.40">1</text>
<text font-size="8px" 
	x="228.50" y="77.40">3</text>
<text font-size="8px" 
	x="299.80" y="140.70">1</text>
<text font-size="8px" 
	x="524.70" y="140.70">5</text>
</g>
<g stroke-width="0.70" font-weight="bold" font-family="Times" font-size="13.00px" >
<path class="stroke" stroke-width="1"
	d="M10.00 309.60v-94.30"/>
<g transform="translate(10.00,215.30) scale(1,0.94)">
	<use xlink:href="#brace"/>
</g>
<path class="stroke" stroke-width="1"
	d="M169.80 239.30v-24.00"/>
<path class="stroke" stroke-width="1"
	d="M169.80 309.60v-70.30"/>
<path class="stroke" stroke-width="1"
	d="M324.80 239.30v-24.00"/>
<path class="stroke" stroke-width="1"
	d="M324.80 309.60v-70.30"/>
<path class="stroke" stroke-width="1"
	d="M479.10 239.30v-24.00"/>
<path class="stroke" stroke-width="1"
	d="M479.10 309.60v-70.30"/>
<path class="stroke" stroke-width="1"
	d="M613.80 239.30v-24.00"/>
<path class="stroke" stroke-width="1"
	d="M613.80 309.60v-70.30"/>
<path class="stroke" stroke-width="1"
	d="M691.60 239.30v-24.00"/>
<path class="stroke" stroke-width="1"
	d="M691.60 309.60v-70.30"/>
<path d="m10.00 239.30
	h681.60
	M10.00 233.30
	h681.60
	M10.00 227.30
	h681.60
	M10.00 221.30
	h681.60
	M10.00 215.30
	h681.60
	" class="stroke"/>
<path d="m10.00 309.60
	h681.60
	M10.00 303.60
	h681.60
	M10.00 297.60
	h681.60
	M10.00 291.60
	h681.60
	M10.00 285.60
	h681.60
	" class="stroke"/>
<path class="fill"
	d="M634.00 218.30c8.25 -4.46 46.40 -5.05 54.64 -0.84
	v-0.25c-9.89 -5.96 -44.76 -5.37 -54.64 1.09"/>
<path class="fill"
	d="M634.00 306.60c8.25 4.46 46.40 5.05 54.64 0.84
	v0.25c-9.89 5.96 -44.76 5.37 -54.64 -1.09"/>
</g>
<g stroke-width="0.70" font-family="Helvetica" font-size="12.00px" >
<text x="55.80" y="206.90">B♭</text>
<text x="191.60" y="206.90">F</text>
<text x="627.80" y="206.90">C7</text>
</g>
<g stroke-width="0.70" font-weight="bold" font-family="Times" font-size="13.00px" >
<text x="46.50" y="263.40">sweet</text>
<text x="124.60" y="263.40">the</text>
<text x="178.80" y="263.40">sound</text>
<text x="256.00" y="263.40">that</text>
<path class="stroke" stroke-width="0.8"
	d="M279.50 263.40h26.00"/>
<text x="333.70" y="263.40">saved</text>
<text x="416.10" y="263.40">a</text>
<path class="stroke" stroke-width="0.8"
	d="M425.20 263.40h34.70"/>
<text x="488.10" y="263.40">wretch</text>
<text x="567.10" y="263.40">like</text>
<text x="622.70" y="263.40">me!</text>
<path class="stroke" stroke-width="0.8"
	d="M647.00 263.40h35.60"/>
<use x="22.00" y="233.30" xlink:href="#tclef"/>
<use x="37.00" y="227.30" xlink:href="#ft0"/>
<use x="61.70" y="236.30" xlink:href="#Hd"/>
<path d="M65.20 236.30v-21.00" class="stroke"/>
<use x="134.00" y="242.30" xlink:href="#hd"/>
<path d="M137.50 242.30v-21.00" class="stroke"/>
<use x="194.50" y="245.30" xlink:href="#hl"/>
<use x="194.50" y="245.30" xlink:href="#Hd"/>
<path d="M198.00 245.30v-21.00" class="stroke"/>
<path class="fill"
	d="M270.10 222.80l33.20 -5.90v3.20l-33.20 5.90"/>
<use x="266.90" y="245.30" xlink:href="#hl"/>
<use x="266.90" y="245.30" xlink:href="#hd"/>
<path d="M270.40 245.30v-21.60" class="stroke"/>
<use x="299.50" y="236.30" xlink:href="#hd"/>
<path d="M303.00 236.30v-18.40" class="stroke"/>
<use x="348.90" y="236.30" xlink:href="#Hd"/>
<path d="M352.40 236.30v-21.00" class="stroke"/>
<path class="fill"
	d="M424.40 209.50l33.20 2.60v3.20l-33.20 -2.60"/>
<use x="421.20" y="230.30" xlink:href="#hd"/>
<path d="M424.70 230.30v-19.80" class="stroke"/>
<use x="453.80" y="233.30" xlink:href="#hd"/>
<path d="M457.30 233.30v-20.20" class="stroke"/>
<use x="505.60" y="230.30" xlink:href="#Hd"/>
<path d="M509.10 230.30v-21.00" class="stroke"/>
<use x="578.00" y="224.30" xlink:href="#hd"/>
<path d="M574.50 224.30v21.00" class="stroke"/>
<use x="634.00" y="224.30" xlink:href="#Hd"/>
<circle class="fill" cx="642.70" cy="224.30" r="1.2"/>
<path d="M630.50 224.30v21.00" class="stroke"/>
<use x="22.00" y="291.60" xlink:href="#bclef"/>
<use x="37.00" y="303.60" xlink:href="#ft0"/>
<use x="61.70" y="303.60" xlink:href="#Hd"/>
<circle class="fill" cx="71.40" cy="300.60" r="1.2"/>
<path d="M65.20 303.60v-21.00" class="stroke"/>
<use x="194.50" y="291.60" xlink:href="#Hd"/>
<circle class="fill" cx="203.20" cy="288.60" r="1.2"/>
<path d="M191.00 291.60v21.00" class="stroke"/>
<use x="348.90" y="312.60" xlink:href="#Hd"/>
<circle class="fill" cx="357.60" cy="312.60" r="1.2"/>
<path d="M352.40 312.60v-21.00" class="stroke"/>
<use x="505.60" y="291.60" xlink:href="#Hd"/>
<circle class="fill" cx="514.30" cy="288.60" r="1.2"/>
<path d="M502.10 291.60v21.00" class="stroke"/>
<use x="634.00" y="300.60" xlink:href="#Hd"/>
<circle class="fill" cx="642.70" cy="300.60" r="1.2"/>
<path d="M637.50 300.60v-21.00" class="stroke"/>
<text font-size="8px" 
	x="58.70" y="276.00">3</text>
<text font-size="8px" 
	x="131.00" y="210.70">2</text>
<text font-size="8px" 
	x="191.50" y="281.00">5</text>
<text font-size="8px" 
	x="296.50" y="210.70">2</text>
<text font-size="8px" 
	x="345.90" y="208.70">1</text>
<text font-size="8px" 
	x="345.90" y="281.00">1</text>
<text font-size="8px" 
	x="502.60" y="281.00">5</text>
<text font-size="8px" 
	x="631.00" y="273.00">4</text>
</g>
<g stroke-width="0.70" font-weight="bold" font-family="Times" font-size="13.00px" >
<path class="stroke" stroke-width="1"
	d="M10.00 458.90v-94.30"/>
<g transform="translate(10.00,364.60) scale(1,0.94)">
	<use xlink:href="#brace"/>
</g>
<path class="stroke" stroke-width="1"
	d="M211.30 388.60v-24.00"/>
<path class="stroke" stroke-width="1"
	d="M211.30 458.90v-70.30"/>
<path class="stroke" stroke-width="1"
	d="M389.60 388.60v-24.00"/>
<path class="stroke" stroke-width="1"
	d="M389.60 458.90v-70.30"/>
<path class="stroke" stroke-width="1"
	d="M540.60 388.60v-24.00"/>
<path class="stroke" stroke-width="1"
	d="M540.60 458.90v-70.30"/>
<path class="stroke" stroke-width="1"
	d="M691.60 388.60v-24.00"/>
<path class="stroke" stroke-width="1"
	d="M691.60 458.90v-70.30"/>
<path d="m10.00 388.60
	h681.60
	M10.00 382.60
	h681.60
	M10.00 376.60
	h681.60
	M10.00 370.60
	h681.60
	M10.00 364.60
	h681.60
	" class="stroke"/>
<path d="m10.00 458.90
	h681.60
	M10.00 452.90
	h681.60
	M10.00 446.90
	h681.60
	M10.00 440.90
	h681.60
	M10.00 434.90
	h681.60
	" class="stroke"/>
<path class="fill"
	d="M42.30 366.80c2.07 -3.65 11.08 -3.07 13.15 0.84
	v-0.21c-2.47 -5.70 -10.68 -6.27 -13.15 -0.63"/>
<path class="fill"
	d="M42.30 456.70c2.07 3.65 11.08 3.07 13.15 -0.84
	v0.21c-2.47 5.70 -10.68 6.27 -13.15 0.63"/>
</g>
<g stroke-width="0.70" font-family="Helvetica" font-size="12.00px" >
<text x="230.90" y="344.20">F</text>
<text x="405.70" y="344.20">F7</text>
<text x="556.40" y="344.20">B♭</text>
<path class="stroke" stroke-width="0.8"
	d="M40.00 415.70h21.50"/>
</g>
<g stroke-width="0.70" font-weight="bold" font-family="Times" font-size="13.00px" >
<text x="137.50" y="415.70">I</text>
<path class="stroke" stroke-width="0.8"
	d="M145.00 415.70h41.90"/>
<text x="220.80" y="415.70">once</text>
<text x="309.20" y="415.70">was</text>
<path class="stroke" stroke-width="0.8"
	d="M333.40 415.70h31.90"/>
<text x="399.30" y="415.70">lost,</text>
<text x="488.10" y="415.70">but</text>
<text x="550.10" y="415.70">now</text>
<text x="638.20" y="415.70">I&apos;m</text>
<use x="22.00" y="382.60" xlink:href="#tclef"/>
<use x="37.00" y="376.60" xlink:href="#ft0"/>
<use x="55.50" y="373.60" xlink:href="#Hd"/>
<path d="M52.00 373.60v21.00" class="stroke"/>
<path class="fill"
	d="M138.20 399.90l39.60 -4.70v-3.20l-39.60 4.70"/>
<use x="142.00" y="379.60" xlink:href="#hd"/>
<path d="M138.50 379.60v19.30" class="stroke"/>
<use x="181.00" y="373.60" xlink:href="#hd"/>
<path d="M177.50 373.60v20.70" class="stroke"/>
<use x="233.80" y="373.60" xlink:href="#Hd"/>
<path d="M230.30 373.60v21.00" class="stroke"/>
<path class="fill"
	d="M323.50 359.30l39.60 4.70v3.20l-39.60 -4.70"/>
<use x="320.40" y="379.60" xlink:href="#hd"/>
<path d="M323.90 379.60v-19.30" class="stroke"/>
<use x="359.30" y="385.60" xlink:href="#hd"/>
<path d="M362.80 385.60v-20.70" class="stroke"/>
<use x="411.20" y="379.60" xlink:href="#Hd"/>
<path d="M414.70 379.60v-21.00" class="stroke"/>
<use x="497.80" y="382.60" xlink:href="#hd"/>
<path d="M501.30 382.60v-21.00" class="stroke"/>
<use x="562.20" y="385.60" xlink:href="#Hd"/>
<path d="M565.70 385.60v-21.00" class="stroke"/>
<use x="648.80" y="391.60" xlink:href="#hd"/>
<path d="M652.30 391.60v-21.00" class="stroke"/>
<use x="22.00" y="440.90" xlink:href="#bclef"/>
<use x="37.00" y="452.90" xlink:href="#ft0"/>
<use x="55.50" y="449.90" xlink:href="#Hd"/>
<circle class="fill" cx="65.20" cy="449.90" r="1.2"/>
<path d="M59.00 449.90v-21.00" class="stroke"/>
<use x="233.80" y="461.90" xlink:href="#Hd"/>
<circle class="fill" cx="242.50" cy="461.90" r="1.2"/>
<path d="M237.30 461.90v-21.00" class="stroke"/>
<use x="411.20" y="440.90" xlink:href="#Hd"/>
<circle class="fill" cx="419.90" cy="437.90" r="1.2"/>
<path d="M407.70 440.90v21.00" class="stroke"/>
<use x="562.20" y="452.90" xlink:href="#Hd"/>
<circle class="fill" cx="570.90" cy="449.90" r="1.2"/>
<path d="M565.70 452.90v-21.00" class="stroke"/>
<text font-size="8px" 
	x="230.80" y="430.30">1</text>
<text font-size="8px" 
	x="408.20" y="352.00">5</text>
<text font-size="8px" 
	x="408.20" y="430.30">5</text>
<text font-size="8px" 
	x="559.20" y="425.30">3</text>
<text font-size="8px" 
	x="645.80" y="360.00">2</text>
</g>
<g stroke-width="0.70" font-weight="bold" font-family="Times" font-size="13.00px" >
<path class="stroke" stroke-width="1"
	d="M10.00 604.20v-94.30"/>
<g transform="translate(10.00,509.90) scale(1,0.94)">
	<use xlink:href="#brace"/>
</g>
<path class="stroke" stroke-width="1"
	d="M161.60 533.90v-24.00"/>
<path class="stroke" stroke-width="1"
	d="M161.60 604.20v-70.30"/>
<path class="stroke" stroke-width="1"
	d="M283.10 533.90v-24.00"/>
<path class="stroke" stroke-width="1"
	d="M283.10 604.20v-70.30"/>
<path class="stroke" stroke-width="1"
	d="M384.50 533.90v-24.00"/>
<path class="stroke" stroke-width="1"
	d="M384.50 604.20v-70.30"/>
<path class="stroke" stroke-width="1"
	d="M455.40 533.90v-24.00"/>
<path class="stroke" stroke-width="1"
	d="M455.40 604.20v-70.30"/>
<path class="stroke" stroke-width="3"
	d="M568.10 533.90v-24.00"/>
<path class="stroke" stroke-width="1"
	d="M563.60 533.90v-24.00"/>
<use x="559.60" y="533.90" xlink:href="#rdots"/>
<path class="stroke" stroke-width="3"
	d="M568.10 604.20v-70.30"/>
<path class="stroke" stroke-width="1"
	d="M563.60 604.20v-70.30"/>
<use x="559.60" y="604.20" xlink:href="#rdots"/>
<path class="stroke" stroke-width="1"
	d="M634.40 533.90v-24.00"/>
<path class="stroke" stroke-width="1"
	d="M634.40 604.20v-70.30"/>
<path class="stroke" stroke-width="3"
	d="M690.10 533.90v-24.00"/>
<path class="stroke" stroke-width="1"
	d="M685.60 533.90v-24.00"/>
<path class="stroke" stroke-width="3"
	d="M690.10 604.20v-70.30"/>
<path class="stroke" stroke-width="1"
	d="M685.60 604.20v-70.30"/>
<path d="m10.00 533.90
	h681.60
	M10.00 527.90
	h681.60
	M10.00 521.90
	h681.60
	M10.00 515.90
	h681.60
	M10.00 509.90
	h681.60
	" class="stroke"/>
<path d="m10.00 604.20
	h681.60
	M10.00 598.20
	h681.60
	M10.00 592.20
	h681.60
	M10.00 586.20
	h681.60
	M10.00 580.20
	h681.60
	" class="stroke"/>
<path class="fill"
	d="M412.00 536.90c8.55 4.37 48.51 4.37 57.06 -0.00
	v0.26c-10.26 6.11 -46.80 6.11 -57.06 -0.26"/>
<path class="fill"
	d="M591.10 536.90c8.55 4.37 48.51 4.37 57.06 -0.00
	v0.26c-10.26 6.11 -46.80 6.11 -57.06 -0.26"/>
<path class="fill"
	d="M412.00 613.20c8.55 4.37 48.51 4.37 57.06 -0.00
	v0.26c-10.26 6.11 -46.80 6.11 -57.06 -0.26"/>
<path class="fill"
	d="M591.10 613.20c8.55 4.37 48.51 4.37 57.06 -0.00
	v0.26c-10.26 6.11 -46.80 6.11 -57.06 -0.26"/>
</g>
<g stroke-width="0.70" font-family="Helvetica" font-size="12.00px" >
<text x="60.40" y="497.50">F</text>
<text x="297.00" y="497.50">C7</text>
<text x="409.10" y="497.50">F</text>
<text x="588.20" y="497.50">F</text>
</g>
<g stroke-width="0.70" font-family="Times" font-size="13.00px" >
<text x="388.50" y="495.30">1</text>
<path class="stroke"
	d="M384.50 483.90m0 20v-20h177.10v20"/>
<text x="573.60" y="495.30">2</text>
<path class="stroke"
	d="M569.60 483.90m0 20v-20h122.00v20"/>
</g>
<g stroke-width="0.70" font-weight="bold" font-family="Times" font-size="13.00px" >
<text x="46.50" y="558.00">found,</text>
<text x="105.50" y="558.00">Was</text>
<path class="stroke" stroke-width="0.8"
	d="M132.80 558.00h15.70"/>
<text x="169.60" y="558.00">blind,</text>
<text x="229.70" y="558.00">but</text>
<path class="stroke" stroke-width="0.8"
	d="M250.20 558.00h19.70"/>
<text x="291.10" y="558.00">now</text>
<text x="353.00" y="558.00">I</text>
<text x="401.00" y="558.00">see.</text>
<path class="stroke" stroke-width="0.8"
	d="M424.80 558.00h50.30"/>
<use x="22.00" y="527.90" xlink:href="#tclef"/>
<use x="37.00" y="521.90" xlink:href="#ft0"/>
<use x="63.30" y="539.90" xlink:href="#hl"/>
<use x="63.30" y="539.90" xlink:href="#Hd"/>
<path d="M66.80 539.90v-21.00" class="stroke"/>
<path class="fill"
	d="M121.10 517.00l25.20 -5.30v3.20l-25.20 5.30"/>
<use x="117.90" y="539.90" xlink:href="#hl"/>
<use x="117.90" y="539.90" xlink:href="#hd"/>
<path d="M121.40 539.90v-22.00" class="stroke"/>
<use x="142.40" y="530.90" xlink:href="#hd"/>
<path d="M145.90 530.90v-18.20" class="stroke"/>
<use x="184.90" y="530.90" xlink:href="#Hd"/>
<path d="M188.40 530.90v-21.00" class="stroke"/>
<path class="fill"
	d="M242.60 504.80l25.10 4.10v3.20l-25.10 -4.10"/>
<use x="239.40" y="524.90" xlink:href="#hd"/>
<path d="M242.90 524.90v-19.00" class="stroke"/>
<use x="263.90" y="530.90" xlink:href="#hd"/>
<path d="M267.40 530.90v-21.00" class="stroke"/>
<use x="303.20" y="524.90" xlink:href="#Hd"/>
<path d="M306.70 524.90v-21.00" class="stroke"/>
<use x="357.50" y="527.90" xlink:href="#hd"/>
<path d="M361.00 527.90v-21.00" class="stroke"/>
<use x="412.00" y="530.90" xlink:href="#Hd"/>
<circle class="fill" cx="420.70" cy="530.90" r="1.2"/>
<path d="M415.50 530.90v-21.00" class="stroke"/>
<use x="469.10" y="530.90" xlink:href="#Hd"/>
<path d="M472.60 530.90v-21.00" class="stroke"/>
<path class="fill"
	d="M526.40 517.00l25.10 -5.30v3.20l-25.10 5.30"/>
<use x="523.20" y="539.90" xlink:href="#hl"/>
<use x="523.20" y="539.90" xlink:href="#hd"/>
<path d="M526.70 539.90v-22.00" class="stroke"/>
<use x="547.70" y="530.90" xlink:href="#hd"/>
<path d="M551.20 530.90v-18.20" class="stroke"/>
<use x="591.10" y="530.90" xlink:href="#Hd"/>
<circle class="fill" cx="599.80" cy="530.90" r="1.2"/>
<path d="M594.60 530.90v-21.00" class="stroke"/>
<use x="648.20" y="530.90" xlink:href="#Hd"/>
<path d="M651.70 530.90v-21.00" class="stroke"/>
<use x="22.00" y="586.20" xlink:href="#bclef"/>
<use x="37.00" y="598.20" xlink:href="#ft0"/>
<use x="63.30" y="607.20" xlink:href="#Hd"/>
<circle class="fill" cx="73.00" cy="607.20" r="1.2"/>
<path d="M66.80 607.20v-21.00" class="stroke"/>
<use x="184.90" y="586.20" xlink:href="#Hd"/>
<circle class="fill" cx="193.60" cy="583.20" r="1.2"/>
<path d="M181.40 586.20v21.00" class="stroke"/>
<use x="303.20" y="595.20" xlink:href="#Hd"/>
<circle class="fill" cx="311.90" cy="595.20" r="1.2"/>
<path d="M306.70 595.20v-21.00" class="stroke"/>
<use x="412.00" y="607.20" xlink:href="#Hd"/>
<circle class="fill" cx="420.70" cy="607.20" r="1.2"/>
<path d="M415.50 607.20v-21.00" class="stroke"/>
<use x="469.10" y="607.20" xlink:href="#Hd"/>
<circle class="fill" cx="477.80" cy="607.20" r="1.2"/>
<path d="M472.60 607.20v-21.00" class="stroke"/>
<use x="591.10" y="607.20" xlink:href="#Hd"/>
<circle class="fill" cx="599.80" cy="607.20" r="1.2"/>
<path d="M594.60 607.20v-21.00" class="stroke"/>
<use x="648.20" y="607.20" xlink:href="#Hd"/>
<path d="M651.70 607.20v-21.00" class="stroke"/>
<text font-size="8px" 
	x="60.30" y="575.60">1</text>
<text font-size="8px" 
	x="139.40" y="505.30">3</text>
<text font-size="8px" 
	x="181.90" y="575.60">5</text>
<text font-size="8px" 
	x="300.20" y="567.60">3</text>
<text font-size="8px" 
	x="409.00" y="575.60">1</text>
<text font-size="8px" 
	x="520.20" y="505.30">1</text>
<text font-size="8px" 
	x="544.70" y="505.30">3</text>
<text font-size="8px" 
	x="588.10" y="575.60">1</text>
</g>
</svg>
